<svg width="30" height="30" viewBox="0 0 30 30" fill="none" xmlns="http://www.w3.org/2000/svg">
<g clip-path="url(#clip0_248_1870)">
<path d="M8.70297 0C8.96212 0 9.17171 0.210001 9.17171 0.468742V3.39046H9.18764C9.44641 3.39046 9.65638 3.60047 9.65638 3.85921C9.65638 4.11835 9.44638 4.32795 9.18764 4.32795H9.17171V6.28106C9.17171 7.45387 9.51446 8.367 10.0034 8.85583C10.0858 8.93854 10.1721 9.02098 10.2816 9.12348C10.3192 9.15856 10.5118 9.33714 10.5661 9.38808C10.6738 9.4894 10.7816 9.59158 10.8832 9.69962C11.0565 9.51564 11.2426 9.34385 11.4276 9.17145C11.4355 9.16412 11.4355 9.16412 11.4435 9.15678C11.5509 9.05732 11.6577 8.95685 11.7633 8.855C12.4108 8.16951 12.5772 7.19022 12.5937 6.28109V4.32798H12.5781C12.3193 4.32798 12.1094 4.11835 12.1094 3.85923C12.1094 3.60049 12.3193 3.39049 12.5781 3.39049H12.5937V0.468742C12.5937 0.210001 12.8037 0 13.0624 0H16.9376C17.1963 0 17.4063 0.210001 17.4063 0.468742C17.4063 2.09654 17.4063 1.4786 17.4063 2.32266V3.39046H17.4218C17.6807 3.39046 17.8906 3.60047 17.8906 3.85921C17.8906 4.11835 17.6807 4.32795 17.4218 4.32795H17.4063V6.28106C17.4063 7.45387 17.7487 8.367 18.2376 8.85583C18.32 8.93854 18.4064 9.02098 18.5159 9.12348C18.5534 9.15856 18.746 9.33714 18.8004 9.38808C18.9083 9.4894 19.0158 9.59158 19.1174 9.69962C19.2908 9.51564 19.4772 9.34385 19.6618 9.17145C19.6698 9.16412 19.6698 9.16412 19.6777 9.15678C19.7855 9.05732 19.892 8.95685 19.9976 8.85529C20.6455 8.16981 20.8115 7.19054 20.8283 6.28109V4.32798H20.8123C20.5536 4.32798 20.3436 4.11835 20.3436 3.85923C20.3436 3.60049 20.5536 3.39049 20.8123 3.39049H20.8283V0.468742C20.8283 0.210001 21.0379 0 21.297 0H25.1718C25.4306 0 25.6405 0.210001 25.6405 0.468742V3.39046H25.6561C25.9152 3.39046 26.1248 3.60047 26.1248 3.85921C26.1248 4.11835 25.9152 4.32795 25.6561 4.32795H25.6405V6.28106C25.6405 7.45387 25.9829 8.367 26.4722 8.85583C26.5545 8.93854 26.6406 9.02098 26.7501 9.12348C26.7877 9.15856 26.9806 9.33714 27.0346 9.38808C27.5573 9.87815 27.8515 10.2279 28.0957 10.7242C28.3974 11.3372 28.5467 12.0843 28.5467 13.0624V13.5626H29.5312C29.79 13.5626 29.9999 13.7723 29.9999 14.0314V29.5312C29.9999 29.7899 29.79 29.9999 29.5312 29.9999H0.468742C0.20992 30 0 29.79 0 29.5312V14.0314C0 13.7723 0.20992 13.5627 0.468742 13.5627H1.45327V13.0624C1.45327 12.0844 1.6025 11.3372 1.90429 10.7242C2.14843 10.228 2.44264 9.8782 2.96539 9.38811C3.01936 9.33716 3.21226 9.15858 3.24983 9.12351C3.35937 9.0213 3.44544 8.93857 3.5278 8.85615C3.5278 8.85585 3.5278 8.85585 3.5278 8.85585C4.017 8.36703 4.35942 7.4539 4.35942 6.28109V4.32798H4.3439C4.08476 4.32798 3.87516 4.11835 3.87516 3.85923C3.87516 3.60049 4.08476 3.39049 4.3439 3.39049H4.35945V0.468742C4.35945 0.210001 4.56937 0 4.82819 0H8.70297ZM29.0625 22.2501H0.937511V29.0625H29.0625V22.2501H29.0625ZM6.28109 25.1873C6.54023 25.1873 6.74983 25.3973 6.74983 25.6561C6.74983 25.9152 6.54023 26.1248 6.28109 26.1248H4.82819C4.56937 26.1248 4.35945 25.9152 4.35945 25.6561C4.35945 25.3973 4.56937 25.1873 4.82819 25.1873H6.28109ZM25.1718 25.1873C25.4306 25.1873 25.6405 25.3973 25.6405 25.6561C25.6405 25.9152 25.4306 26.1248 25.1718 26.1248H23.7189C23.4598 26.1248 23.2502 25.9152 23.2502 25.6561C23.2502 25.3973 23.4598 25.1873 23.7189 25.1873H25.1718ZM29.0625 14.5001H0.937511V21.3126H29.0625V14.5001H29.0625ZM6.28109 17.4374C6.54023 17.4374 6.74983 17.6474 6.74983 17.9062C6.74983 18.165 6.54023 18.3749 6.28109 18.3749H4.82819C4.56937 18.3749 4.35945 18.165 4.35945 17.9062C4.35945 17.6474 4.56937 17.4374 4.82819 17.4374H6.28109ZM25.1718 17.4374C25.4306 17.4374 25.6405 17.6474 25.6405 17.9062C25.6405 18.165 25.4306 18.3749 25.1718 18.3749H23.7189C23.4598 18.3749 23.2502 18.165 23.2502 17.9062C23.2502 17.6474 23.4598 17.4374 23.7189 17.4374H25.1718ZM24.703 6.28109V4.32798H21.7658V6.28109C21.7658 7.69196 21.333 8.84554 20.6594 9.51905L20.6549 9.52326C20.5606 9.61546 20.4806 9.69054 20.3162 9.84342C20.3082 9.85075 20.3082 9.85075 20.3003 9.85811C20.1004 10.0516 19.8859 10.2331 19.703 10.444C19.8034 10.6015 19.7485 10.5094 19.8612 10.7242C20.1629 11.3372 20.3125 12.0844 20.3125 13.0624V13.5627H27.6092V13.0624C27.6092 12.2195 27.4881 11.6122 27.2546 11.1383C27.0709 10.7651 26.8408 10.4913 26.3934 10.072C26.3416 10.0232 26.1499 9.84554 26.1102 9.80865C25.9937 9.69935 25.9002 9.60998 25.809 9.51905C25.1358 8.84554 24.703 7.69196 24.703 6.28109ZM8.2342 4.32798H5.29693V6.28109C5.29693 7.69196 4.8642 8.84554 4.19099 9.51905C4.19067 9.51905 4.19067 9.51905 4.19067 9.51905C4.09977 9.60998 4.00631 9.69935 3.88977 9.80865C3.85008 9.84554 3.65844 10.0232 3.60656 10.072C3.15914 10.4913 2.92905 10.7651 2.7454 11.1383C2.51187 11.6122 2.39079 12.2195 2.39079 13.0624V13.5627H11.1408V13.0624C11.1408 12.2195 11.0193 11.6122 10.7859 11.1383C10.6021 10.7651 10.372 10.4913 9.92492 10.072C9.87304 10.0232 9.68109 9.84554 9.6414 9.80865C9.52485 9.69935 9.43148 9.60998 9.34055 9.51905C8.66693 8.84554 8.2342 7.69196 8.2342 6.28109V4.32798ZM16.4688 4.32798H13.5312V6.28109C13.5312 7.69196 13.0988 8.84554 12.4252 9.51905L12.4206 9.52326C12.3263 9.61546 12.2464 9.69054 12.0816 9.84342C12.074 9.85075 12.074 9.85075 12.066 9.85811C11.8658 10.0516 11.6516 10.2331 11.4688 10.444C11.5689 10.6015 11.5143 10.5094 11.6269 10.7242C11.9287 11.3372 12.0783 12.0844 12.0783 13.0624V13.5627H19.375V13.0624C19.375 12.2195 19.2535 11.6122 19.0201 11.1383C18.8366 10.7651 18.6066 10.4913 18.1591 10.072C18.1072 10.0232 17.9153 9.84554 17.876 9.80865C17.7591 9.69935 17.6657 9.60998 17.5748 9.51905C16.9012 8.84554 16.4688 7.69196 16.4688 6.28109V4.32798ZM24.703 0.937511H21.7658V3.39046H24.703V0.937511ZM16.4688 0.937511H13.5312V3.39046H16.4688V0.937511ZM8.2342 0.937511H5.29693V3.39046H8.2342V0.937511Z" fill="#73992C"/>
</g>
<defs>
<clipPath id="clip0_248_1870">
<rect width="30" height="30" fill="white"/>
</clipPath>
</defs>
</svg>
