<svg width="30" height="27" viewBox="0 0 30 27" fill="none" xmlns="http://www.w3.org/2000/svg">
<g clip-path="url(#clip0_248_1874)">
<path d="M15.0012 25.2912C13.1638 24.3218 0.999468 17.5471 0.999468 8.37193C0.999468 4.42255 4.38794 0.957909 8.2496 0.957909C10.8671 0.960216 13.2792 2.31283 14.5649 4.49411C14.6619 4.6326 14.8257 4.718 15.0012 4.718C15.1766 4.718 15.3405 4.6326 15.4351 4.49411C16.7208 2.31283 19.1329 0.960216 21.7504 0.957909C25.6121 0.957909 29.0006 4.42255 29.0006 8.37193C29.0005 17.5471 16.8362 24.3218 15.0012 25.2912ZM21.7504 0C19.0636 0.0046159 16.5454 1.25798 15.0011 3.36309C13.4546 1.25798 10.9387 0.0046159 8.2496 0C3.85474 0 0 3.91245 0 8.37193C0 12.7183 2.56444 17.1963 7.41863 21.3188C9.66685 23.2254 12.1343 24.8827 14.7703 26.2607C14.9157 26.3299 15.0866 26.3299 15.2297 26.2607C17.8657 24.8827 20.3332 23.2254 22.5791 21.3188C27.4356 17.1963 30 12.7183 30 8.37193C30 3.91245 26.1453 0 21.7504 0Z" fill="#73992C"/>
</g>
<defs>
<clipPath id="clip0_248_1874">
<rect width="30" height="26.3126" fill="white"/>
</clipPath>
</defs>
</svg>
