<svg width="30" height="30" viewBox="0 0 30 30" fill="none" xmlns="http://www.w3.org/2000/svg">
<g clip-path="url(#clip0_248_1872)">
<path d="M5.96643 6.08974L6.05066 6.10443L14.9999 8.50245L23.9494 6.10443L24.0336 6.08974C24.2484 6.08701 24.3992 6.18528 24.5006 6.3702C24.5039 6.37785 24.5039 6.37785 24.5234 6.42269C24.5436 6.46942 24.5702 6.53013 24.6034 6.60668C24.6986 6.8252 24.8292 7.12582 25.0016 7.52191C25.4942 8.65324 26.2196 10.3192 27.2227 12.6223L27.2258 12.6296C28.43 15.5221 28.5176 17.8575 27.6097 19.6233C26.8516 21.108 25.5229 21.9353 23.9903 22.4813L25.4054 27.7626L29.4099 26.6896L29.5036 26.6744C29.7437 26.6799 29.9003 26.8007 29.9839 27.021C30.0511 27.2713 29.9025 27.5282 29.6525 27.5954L20.7381 29.9837C20.4882 30.0508 20.2312 29.9025 20.164 29.6523C20.0972 29.4023 20.2455 29.1453 20.4954 29.0782L24.4999 28.0052L23.0849 22.7239C21.407 23.0565 20.0068 22.9518 18.5213 22.0586C16.8523 20.9835 15.7604 18.9168 15.3569 15.8098L15.356 15.8023C15.2373 14.7555 15.1185 13.7088 14.9999 12.662C14.8812 13.7088 14.7627 14.7555 14.644 15.8023L14.6431 15.8098C14.2396 18.9168 13.1478 20.9835 11.4784 22.0586C10.2895 22.8212 8.86767 23.0157 7.48557 22.8285C7.29425 22.8026 7.10534 22.7586 6.91518 22.7239L5.50011 28.0052L9.50432 29.0782C9.75454 29.1453 9.90282 29.4023 9.83602 29.6523C9.76892 29.9025 9.51197 30.0508 9.26165 29.984L0.34757 27.5954C0.0973275 27.5282 -0.0510255 27.2713 0.0161702 27.021C0.0621754 26.8727 0.165076 26.7506 0.316385 26.6991C0.37351 26.6795 0.436394 26.6826 0.496476 26.6744L0.590145 26.6896L4.59433 27.7626L6.00971 22.4813C4.48598 22.0015 3.14872 21.0435 2.39037 19.6233C1.48247 17.8575 1.57006 15.5221 2.77395 12.6296L2.777 12.6223C3.78043 10.3192 4.50581 8.65324 4.99808 7.52191C5.17052 7.12581 5.30144 6.8252 5.39667 6.60668C5.42996 6.53012 5.45613 6.46942 5.47659 6.42269C5.49612 6.37785 5.49612 6.37785 5.49948 6.3702C5.55996 6.24325 5.66403 6.14467 5.80223 6.1059C5.85503 6.09129 5.91152 6.09529 5.96643 6.08974ZM26.8315 14.3035C26.5635 14.4753 26.2727 14.6008 25.9843 14.7311C24.828 15.2267 23.4334 15.5224 21.7992 15.5224C19.8699 15.5093 17.9677 15.112 16.1498 14.483L16.2868 15.6917C16.5648 17.7612 17.1993 20.0426 19.0291 21.2703C20.201 22.0254 21.6881 22.144 23.2991 21.7125C24.9098 21.2807 26.1384 20.4344 26.7759 19.1945C27.4446 17.8444 27.3569 16.3158 27.0029 14.8879C26.9541 14.6911 26.8885 14.4985 26.8315 14.3035ZM8.2009 12.5084C6.69582 12.5084 5.4263 12.778 4.38496 13.2241C4.02551 13.3782 3.72091 13.5421 3.47131 13.7045C3.38434 13.7618 3.42981 13.731 3.3352 13.7972C2.69005 15.5959 2.40015 17.4191 3.22412 19.1945C3.86161 20.4344 5.08995 21.2807 6.70097 21.7125C8.31196 22.144 9.79908 22.0254 10.9709 21.2703C12.8072 20.0487 13.4285 17.7559 13.7133 15.6915L13.9458 13.6385C12.1084 12.9336 10.1653 12.5634 8.2009 12.5084ZM23.802 7.11448L15.5644 9.32151C15.5965 9.60384 15.6285 9.88645 15.6606 10.1687C15.9935 13.103 15.8696 12.0095 16.0326 13.4488C17.8743 14.1613 19.8314 14.5055 21.7992 14.5849C23.3042 14.5849 24.5738 14.3157 25.6151 13.8695C25.9303 13.7386 26.2294 13.5738 26.5193 13.395C26.4622 13.2348 26.511 13.3703 26.3612 12.9922C25.6215 11.2936 24.8817 9.59494 24.1419 7.89606C24.0288 7.63542 23.9152 7.3748 23.802 7.11448ZM6.19808 7.11419C6.0848 7.3748 5.97128 7.63542 5.85777 7.89606C4.4616 11.1028 5.11834 9.59494 3.88755 12.4202L4.01574 12.3623C5.17176 11.867 6.56669 11.571 8.2009 11.571C10.2041 11.564 12.173 12.0291 14.0529 12.6928L14.3392 10.1687C14.3716 9.88645 14.4036 9.60384 14.4356 9.32151L6.19808 7.11419ZM9.73259 0.97257C9.8961 1.00522 10.0106 1.08555 10.0912 1.22772L11.0598 3.1653C11.1757 3.39685 11.0817 3.67827 10.8501 3.79419C10.6188 3.90992 10.3371 3.81622 10.2215 3.58459L9.25251 1.64702C9.13689 1.41538 9.23088 1.13407 9.4622 1.01804C9.60775 0.962815 9.51954 0.986637 9.73259 0.97257ZM20.2674 0.97257C20.4805 0.986637 20.3923 0.962814 20.5375 1.01804C20.7691 1.13407 20.8631 1.41538 20.7472 1.64702L19.7786 3.58459C19.6629 3.81622 19.3813 3.90992 19.1497 3.79419C18.9183 3.67827 18.8243 3.39685 18.9399 3.1653L19.9089 1.22773C19.9989 1.05625 20.0908 1.03148 20.2674 0.97257ZM14.9999 0C15.259 0 15.4687 0.209998 15.4687 0.468747V2.89061C15.4687 3.14936 15.259 3.35936 14.9999 3.35936C14.7411 3.35936 14.5312 3.14936 14.5312 2.89061V0.468747C14.5312 0.209998 14.7411 0 14.9999 0Z" fill="#73992C"/>
</g>
<defs>
<clipPath id="clip0_248_1872">
<rect width="30" height="30" fill="white"/>
</clipPath>
</defs>
</svg>
