<svg id="Calque_1" data-name="Calque 1" xmlns="http://www.w3.org/2000/svg" viewBox="0 0 74 74"><defs><style>.cls-1{fill:#a83d72;}</style></defs><path d="M31.80427,32.73664a8.2206,8.2206,0,0,0-11.11388,7.20188,1.09223,1.09223,0,0,0,.91113,1.13757,1.05355,1.05355,0,0,0,.19148.01732,1.10246,1.10246,0,0,0,1.05728-.77934,7.80085,7.80085,0,0,1,3.50482-4.33152H26.356a8.266,8.266,0,0,1,4.93488-1.15125,1.0986,1.0986,0,0,0,1.17752-.82583A1.07487,1.07487,0,0,0,31.80427,32.73664Z"/><path class="cls-1" d="M29.69988.98128c-1.27465.96165-7.844,5.77445-5.04679,14.24607,2.28567,6.92387,9.73562,10.95,16.2726,8.68309,1.3616-.47216-10.08158,2.235-11.95193-5.81364-1.69091-7.2748,5.62955-8.82073,6.60172-9.5545a4.71546,4.71546,0,0,0,.89816-6.675A4.879,4.879,0,0,0,29.69988.98128Z"/><path class="cls-1" d="M40.73144,50.09006a21.65016,21.65016,0,0,1-16.40672-.50589.35008.35008,0,0,0-.42642.53142,16.64329,16.64329,0,0,0,18.84039,5.19746A16.24539,16.24539,0,0,0,53.35954,39.12181a.35423.35423,0,0,0-.67618-.12032A21.23764,21.23764,0,0,1,40.73144,50.09006Z"/><path d="M70.10481,33.49867A33.40983,33.40983,0,0,0,52.84339,11.11l-.37556-.19689L46.16765,20.5743l.47175.22332A21.9229,21.9229,0,0,1,58.7902,35.926a21.56606,21.56606,0,0,1-3.03863,16.54946,22.15663,22.15663,0,0,1-14.01282,9.6019A22.441,22.441,0,0,1,24.94444,59.084a21.75368,21.75368,0,0,1-5.07178-32.54473l.33392-.39651-9.805-6.20742-.25809.33179a33.04828,33.04828,0,0,0,8.5433,48.41238A34.04531,34.04531,0,0,0,36.95091,74a34.52528,34.52528,0,0,0,7.25108-.773A33.65732,33.65732,0,0,0,65.49086,58.641,32.76072,32.76072,0,0,0,70.10481,33.49867Z"/></svg>