<svg width="30" height="37" viewBox="0 0 30 37" fill="none" xmlns="http://www.w3.org/2000/svg">
<g clip-path="url(#clip0_1677_2387)">
<path d="M30 16.8057C29.9991 16.1098 29.7223 15.4428 29.2302 14.9508C28.7381 14.4588 28.0709 14.1821 27.3751 14.1814H24.2902C24.9199 13.6468 25.4208 12.9768 25.7553 12.2215C26.0083 11.6493 26.07 11.0108 25.9315 10.4007C25.7929 9.7906 25.4614 9.24142 24.986 8.83461C24.7138 8.55326 24.387 8.33033 24.0258 8.17941C23.6645 8.02849 23.2763 7.95275 22.8848 7.9568C20.7274 7.99704 18.3914 10.433 15.9183 13.0122C15.6144 13.3293 15.3069 13.6462 14.9997 13.9624C14.693 13.6464 14.3858 13.3299 14.0822 13.0128C11.609 10.4336 9.27311 7.99704 7.11515 7.9568C6.72357 7.95222 6.33519 8.02772 5.97385 8.17867C5.6125 8.32962 5.28583 8.55284 5.01388 8.83461C4.53858 9.24143 4.20706 9.79061 4.06848 10.4007C3.92991 11.0108 3.99165 11.6493 4.24457 12.2215C4.57915 12.9768 5.08 13.6468 5.70974 14.1814H2.62431C1.92852 14.1821 1.26145 14.4588 0.769459 14.9508C0.277466 15.4428 0.000740261 16.1099 0 16.8057V21.9117H2.26094V34.4669C2.26149 35.0161 2.47991 35.5426 2.86826 35.931C3.25662 36.3193 3.78318 36.5377 4.33238 36.5383H25.6676C26.2168 36.5377 26.7434 36.3193 27.1317 35.931C27.52 35.5426 27.7385 35.0161 27.739 34.4669V21.9117H29.9999L30 16.8057ZM22.9037 8.95531C23.1632 8.9568 23.4198 9.01045 23.6581 9.11308C23.8965 9.21571 24.1117 9.36522 24.2911 9.55272C24.6052 9.80911 24.8305 10.1581 24.9348 10.5499C25.0391 10.9417 25.0171 11.3564 24.8721 11.7351C24.4017 12.8314 23.53 13.7066 22.4355 14.1814H16.1771C16.331 14.0216 16.4865 13.8631 16.6395 13.7035C18.8621 11.3852 21.1609 8.98823 22.9037 8.95531ZM5.12791 11.7357C4.9828 11.357 4.96084 10.9421 5.06514 10.5502C5.16944 10.1583 5.3947 9.80922 5.70885 9.55272C5.88804 9.36494 6.10328 9.21524 6.34167 9.11259C6.58007 9.00994 6.83673 8.95645 7.09629 8.95531C8.83974 8.98823 11.1379 11.3858 13.3611 13.7041C13.5138 13.8635 13.6689 14.0217 13.8226 14.1814H7.57055C6.47294 13.7094 5.59852 12.8339 5.12791 11.7357ZM0.998573 16.8057C0.999184 16.3747 1.17066 15.9615 1.47541 15.6568C1.78016 15.352 2.19332 15.1805 2.62431 15.1799H14.5004V20.9131H0.998573V16.8057ZM3.25952 34.4669V21.9117H14.5004V35.5398H4.33238C4.04797 35.5393 3.77532 35.4262 3.57421 35.225C3.3731 35.0239 3.25993 34.7513 3.25952 34.4669ZM26.7405 34.4669C26.7401 34.7513 26.6269 35.0239 26.4258 35.225C26.2247 35.4262 25.952 35.5393 25.6676 35.5398H15.499V21.9117H26.7405L26.7405 34.4669ZM29.0015 20.9131H15.4989V15.1799H27.3751C27.8062 15.1804 28.2195 15.3518 28.5244 15.6566C28.8293 15.9613 29.0008 16.3746 29.0015 16.8057L29.0015 20.9131Z" fill="#A83D72"/>
<path d="M10.0899 2.18029C10.3055 2.18034 10.5163 2.11645 10.6956 1.9967C10.8749 1.87694 11.0147 1.7067 11.0972 1.50751C11.1798 1.30832 11.2014 1.08912 11.1594 0.877637C11.1173 0.666154 11.0135 0.471885 10.8611 0.319399C10.7087 0.166913 10.5144 0.0630582 10.3029 0.0209702C10.0915 -0.0211178 9.87226 0.000450731 9.67305 0.0829483C9.47384 0.165446 9.30356 0.305167 9.18376 0.484441C9.06396 0.663715 9.00001 0.87449 9 1.09011C8.99998 1.3792 9.11479 1.65646 9.31918 1.86091C9.52358 2.06535 9.80081 2.18024 10.0899 2.18029Z" fill="#A83D72"/>
<path d="M13.4007 7.21431C13.5613 7.21431 13.7184 7.16667 13.852 7.07741C13.9855 6.98815 14.0897 6.86129 14.1511 6.71286C14.2126 6.56443 14.2287 6.40111 14.1974 6.24354C14.166 6.08597 14.0887 5.94123 13.9751 5.82763C13.8614 5.71403 13.7167 5.63667 13.5591 5.60533C13.4016 5.57399 13.2382 5.59008 13.0898 5.65156C12.9414 5.71304 12.8145 5.81716 12.7253 5.95074C12.636 6.08432 12.5884 6.24137 12.5884 6.40203C12.5884 6.50871 12.6093 6.61435 12.6501 6.71292C12.691 6.81148 12.7508 6.90104 12.8262 6.97648C12.9017 7.05191 12.9912 7.11174 13.0898 7.15255C13.1884 7.19336 13.294 7.21434 13.4007 7.21431Z" fill="#A83D72"/>
<path d="M25.7862 5.63403C25.7862 5.97225 25.8864 6.30289 26.0744 6.58412C26.2623 6.86535 26.5293 7.08454 26.8418 7.21397C27.1543 7.3434 27.4981 7.37727 27.8299 7.31128C28.1616 7.24529 28.4663 7.08241 28.7055 6.84324C28.9446 6.60407 29.1075 6.29935 29.1735 5.96762C29.2394 5.63589 29.2055 5.29204 29.0761 4.97957C28.9466 4.6671 28.7274 4.40003 28.4462 4.21214C28.165 4.02425 27.8343 3.92398 27.4961 3.92401C27.0426 3.92405 26.6077 4.10423 26.287 4.42492C25.9663 4.7456 25.7862 5.18052 25.7862 5.63403Z" fill="#A83D72"/>
<path d="M22.3502 5.10504C22.4957 5.10505 22.6379 5.06193 22.7589 4.98111C22.8798 4.9003 22.9741 4.78543 23.0298 4.65102C23.0855 4.51662 23.1001 4.36872 23.0717 4.22603C23.0433 4.08334 22.9733 3.95226 22.8704 3.84938C22.7676 3.7465 22.6365 3.67644 22.4938 3.64805C22.3511 3.61966 22.2032 3.63422 22.0688 3.68989C21.9344 3.74556 21.8195 3.83984 21.7387 3.96081C21.6579 4.08177 21.6147 4.22399 21.6147 4.36947C21.6148 4.56453 21.6922 4.75158 21.8302 4.88952C21.9681 5.02745 22.1551 5.10497 22.3502 5.10504Z" fill="#A83D72"/>
<path d="M4.49996 6C4.79664 6.00001 5.08665 5.91204 5.33333 5.74722C5.58001 5.5824 5.77227 5.34813 5.88581 5.07404C5.99935 4.79995 6.02906 4.49835 5.97118 4.20738C5.9133 3.9164 5.77044 3.64913 5.56066 3.43934C5.35088 3.22956 5.08361 3.0867 4.79263 3.02882C4.50166 2.97094 4.20006 3.00065 3.92596 3.11419C3.65187 3.22772 3.4176 3.41998 3.25278 3.66666C3.08796 3.91334 2.99999 4.20335 3 4.50003C3 4.89784 3.15804 5.27936 3.43933 5.56066C3.72063 5.84196 4.10215 5.99999 4.49996 6Z" fill="#A83D72"/>
<path d="M26.1727 2.64678C26.4344 2.64682 26.6903 2.56925 26.9079 2.42387C27.1256 2.27849 27.2952 2.07183 27.3954 1.83003C27.4956 1.58822 27.5219 1.32214 27.4709 1.06542C27.4198 0.808698 27.2938 0.572876 27.1088 0.387774C26.9237 0.202673 26.6879 0.0766058 26.4312 0.0255161C26.1745 -0.0255736 25.9084 0.000608672 25.6666 0.100752C25.4247 0.200895 25.218 0.370502 25.0726 0.588122C24.9272 0.805742 24.8495 1.0616 24.8495 1.32334C24.8495 1.67428 24.9889 2.01086 25.237 2.25904C25.4852 2.50722 25.8217 2.64669 26.1727 2.64678Z" fill="#A83D72"/>
</g>
<defs>
<clipPath id="clip0_1677_2387">
<rect width="30" height="36.5383" fill="white"/>
</clipPath>
</defs>
</svg>
