<svg width="30" height="42" viewBox="0 0 30 42" fill="none" xmlns="http://www.w3.org/2000/svg">
<g clip-path="url(#clip0_280_5707)">
<path d="M27.057 19.2977C29.5873 14.1036 30.7574 7.94456 28.8684 3.8869C27.6843 1.34433 25.4159 0 22.3082 0C20.0655 0 18.3265 0.798396 17.1385 2.37469C13.367 7.37267 16.4824 18.4861 16.6169 18.9565L17.5012 18.7053C17.4691 18.5938 14.3755 7.56106 17.8715 2.92703C18.8917 1.57501 20.3423 0.917579 22.3082 0.917579C25.0725 0.917579 26.9986 2.04789 28.0354 4.27392C29.6508 7.74464 28.7761 13.666 26.2547 18.8837L23.154 17.2841C22.7965 17.0982 22.3697 17.1021 22.0148 17.2982L0.631058 29.0127C0.346557 29.1677 0.14023 29.4253 0.0492406 29.7367C-0.0417484 30.0469 -0.0058654 30.3749 0.150482 30.6582L5.56112 40.535C5.78027 40.9374 6.19676 41.1655 6.62736 41.1655C6.82343 41.1655 7.02207 41.1181 7.20661 41.0168L28.5954 29.2985H28.5967C28.9453 29.1062 29.1773 28.7564 29.2183 28.3604L30 20.816L27.057 19.2977ZM28.3058 28.2655C28.2956 28.3617 28.2379 28.4475 28.1533 28.4937L6.76705 40.2107C6.62224 40.2876 6.4441 40.2351 6.36593 40.0941L0.955287 30.216C0.918121 30.1481 0.909151 30.0687 0.930937 29.9931C0.952723 29.9174 1.0027 29.8559 1.07191 29.8175L22.4556 18.1042C22.5005 18.0786 22.5492 18.0671 22.5979 18.0671C22.644 18.0671 22.6901 18.0773 22.7324 18.1004L25.8337 19.7001C25.4608 20.4097 25.0783 21.1154 24.6457 21.7834C24.4727 21.6935 24.3196 21.5703 24.128 21.5144C23.3565 21.2901 22.5427 21.3747 21.8353 21.7643C20.3782 22.5627 19.8426 24.3979 20.6409 25.8537C21.1882 26.8533 22.2224 27.4184 23.2886 27.4184C23.7769 27.4184 24.2728 27.2993 24.7303 27.0481C26.1874 26.2497 26.7231 24.4145 25.9247 22.9587C25.7863 22.705 25.5819 22.5095 25.3833 22.3101C25.8337 21.6142 26.2573 20.8809 26.6552 20.1239L29.0209 21.344L28.3058 28.2655ZM25.1199 23.3996C25.6748 24.412 25.3019 25.6871 24.2895 26.2433C23.2771 26.7956 22.0019 26.4253 21.4458 25.4128C20.8908 24.4004 21.2638 23.1253 22.2762 22.5691C22.5889 22.3974 22.9323 22.3102 23.2796 22.3102C23.477 22.3102 23.6756 22.3384 23.8704 22.3961C23.9576 22.4214 24.0236 22.4825 24.1049 22.5179C23.7243 23.0603 23.3514 23.6118 22.9323 24.1095L23.6346 24.7016C24.0562 24.2008 24.449 23.6325 24.8437 23.0692C24.9373 23.1786 25.0494 23.2703 25.1199 23.3996Z" fill="#901340"/>
<path d="M11.7794 25.9702L8.74219 36.3699L9.62388 36.6262L12.6611 26.2265L11.7794 25.9702Z" fill="#901340"/>
<path d="M9.07837 30.8235C9.21293 30.3596 9.16039 29.87 8.92715 29.4458C8.69519 29.0216 8.31073 28.7128 7.84682 28.5769C7.3829 28.4398 6.89335 28.4949 6.46917 28.7282C6.04498 28.9601 5.73613 29.3446 5.60029 29.8085C5.46572 30.2724 5.51827 30.762 5.75022 31.1861C5.98218 31.6103 6.36536 31.9179 6.82928 32.0537C6.99844 32.1037 7.17017 32.1281 7.34189 32.1281C7.64177 32.1281 7.93909 32.0525 8.20949 31.9038C8.63368 31.6719 8.94253 31.2874 9.07837 30.8235ZM7.76864 31.099C7.55847 31.2156 7.31754 31.2374 7.08815 31.1721C6.85875 31.1054 6.67037 30.9542 6.55631 30.7453C6.32051 30.3134 6.47942 29.7701 6.91001 29.533C7.04586 29.4586 7.19323 29.424 7.33805 29.424C7.6533 29.424 7.95959 29.5906 8.12235 29.8867C8.35815 30.3186 8.19924 30.8619 7.76864 31.099Z" fill="#901340"/>
<path d="M14.5763 30.5428C14.1124 30.4056 13.6216 30.4607 13.1987 30.694C12.3234 31.1733 12.0005 32.2754 12.4798 33.152C12.7117 33.5762 13.0962 33.885 13.5614 34.0209C13.7292 34.0695 13.901 34.0939 14.0714 34.0939C14.3713 34.0939 14.6686 34.0183 14.939 33.8696C15.8143 33.3891 16.136 32.2869 15.6567 31.4116C15.4247 30.9875 15.0403 30.6786 14.5763 30.5428ZM14.4982 33.0648C14.0689 33.2993 13.5216 33.143 13.2858 32.7111C13.0488 32.2792 13.2089 31.7359 13.6395 31.4988C13.7754 31.4245 13.9228 31.3899 14.0676 31.3899C14.3828 31.3899 14.6891 31.5565 14.8519 31.8525C15.0877 32.2844 14.9288 32.8277 14.4982 33.0648Z" fill="#901340"/>
</g>
<defs>
<clipPath id="clip0_280_5707">
<rect width="30" height="41.1655" fill="white"/>
</clipPath>
</defs>
</svg>
