<svg width="30" height="31" viewBox="0 0 30 31" fill="none" xmlns="http://www.w3.org/2000/svg">
<g clip-path="url(#clip0_280_5682)">
<path d="M0.618173 20.4307L0 19.6439C1.16711 18.7264 2.19497 17.8496 3.10145 17.0759C4.5516 15.8383 5.59899 14.9445 6.32507 14.6541C7.56631 14.1569 10.2316 13.768 12.5435 13.9785C14.3173 14.139 16.8931 13.9227 18.1315 13.8185C18.5309 13.7851 18.8107 13.7627 18.9137 13.7627C19.5706 13.7627 20.6253 14.3406 20.8961 15.425C21.0016 15.8473 20.9088 16.2973 20.6274 16.7265C20.1171 17.5051 19.0644 18.0948 17.8118 18.3041C15.9821 18.6091 14.0754 18.6128 13.9952 18.6128V17.6118C14.014 17.6118 15.9015 17.6082 17.6473 17.317C18.8034 17.124 19.5124 16.6019 19.7905 16.178C19.8768 16.0456 19.9709 15.8497 19.9253 15.6677C19.7673 15.0357 19.1031 14.7637 18.9137 14.7637C18.8217 14.7637 18.5721 14.7861 18.2153 14.8158C16.9485 14.9229 14.312 15.1456 12.453 14.9754C10.0976 14.7608 7.62535 15.2112 6.69687 15.5834C6.12349 15.8127 5.0765 16.7061 3.75138 17.837C2.83717 18.6169 1.80158 19.5009 0.618173 20.4307Z" fill="#901340"/>
<path d="M2.95181 27.2927L2.16016 26.681L5.96245 21.7605L6.23448 21.7841C6.33181 21.7926 16.0173 22.6242 18.4733 22.0109C20.9925 21.3809 24.7308 18.8215 26.3162 16.6416L26.7063 16.1085C28.1918 14.085 29.4746 12.3372 28.8222 10.7062C28.6854 10.3642 28.582 10.3157 28.5812 10.3153C28.3295 10.308 27.493 11.2128 26.9461 11.8281C26.2978 12.5575 25.5632 13.3842 24.6889 14.1127C21.8704 16.4612 20.3592 17.1506 20.2961 17.1787L19.886 16.2661C19.9003 16.2596 21.3557 15.5877 24.0479 13.3438C24.8648 12.6634 25.5734 11.8664 26.198 11.1631C27.2161 10.0176 27.9487 9.19296 28.7554 9.32978C29.3944 9.44178 29.6632 10.1137 29.7515 10.3348C30.6104 12.4813 29.1057 14.5309 27.513 16.7006L27.1257 17.2304C25.3978 19.6058 21.4681 22.2935 18.716 22.9817C16.3118 23.5816 8.06374 22.9398 6.42057 22.8042L2.95181 27.2927Z" fill="#901340"/>
<path d="M18.0244 24.2075H17.0234V29.7674H18.0244V24.2075Z" fill="#901340"/>
<path d="M22.5512 29.2666H12.5V30.2676H22.5512V29.2666Z" fill="#901340"/>
<path d="M11.9111 14.0938C10.9333 12.9845 10.3945 11.5637 10.3945 10.0932L11.2517 0L12.2486 0.0847015L11.3935 10.1355C11.3955 11.3197 11.8451 12.5056 12.662 13.4316L11.9111 14.0938Z" fill="#901340"/>
<path d="M21.4932 15.5223L21.0469 14.6264C22.7597 13.7729 23.8665 11.9933 23.8665 10.0932L23.0134 0.0847015L24.0103 0L24.8655 10.0508C24.8675 12.4046 23.5745 14.4851 21.4932 15.5223Z" fill="#901340"/>
<path d="M23.7269 2.96338H17.0977V3.96435H23.7269V2.96338Z" fill="#901340"/>
</g>
<defs>
<clipPath id="clip0_280_5682">
<rect width="30" height="30.2677" fill="white"/>
</clipPath>
</defs>
</svg>
