<svg width="30" height="24" viewBox="0 0 30 24" fill="none" xmlns="http://www.w3.org/2000/svg">
<g clip-path="url(#clip0_1677_2376)">
<path d="M27.0387 0H2.96129C2.17636 0.000650824 1.42375 0.31265 0.86858 0.867541C0.313414 1.42243 0.00104056 2.17489 0 2.95982L0 20.3711C0.000736054 21.1562 0.312965 21.909 0.868155 22.4642C1.42334 23.0194 2.17613 23.3316 2.96129 23.3324H27.0387C27.8239 23.3316 28.5767 23.0194 29.1318 22.4642C29.687 21.909 29.9993 21.1562 30 20.3711V2.95982C29.999 2.17489 29.6866 1.42243 29.1314 0.867541C28.5763 0.31265 27.8236 0.000650824 27.0387 0ZM2.96129 1.04602H27.0387C27.5463 1.04645 28.033 1.24817 28.392 1.60694C28.7511 1.96571 28.9532 2.45224 28.954 2.95982V4.75237H1.046V2.95982C1.04682 2.45224 1.24892 1.96571 1.60798 1.60694C1.96703 1.24817 2.45371 1.04645 2.96129 1.04602ZM27.0387 22.2863H2.96129C2.45348 22.2858 1.96662 22.0839 1.60755 21.7248C1.24848 21.3657 1.04652 20.8789 1.046 20.3711V5.79839H28.954V20.3711C28.9535 20.8789 28.7515 21.3657 28.3925 21.7248C28.0334 22.0839 27.5465 22.2858 27.0387 22.2863Z" fill="#A83D72"/>
<path d="M22.3389 3.56923C22.6754 3.56923 22.9481 3.29648 22.9481 2.96003C22.9481 2.62358 22.6754 2.35083 22.3389 2.35083C22.0025 2.35083 21.7297 2.62358 21.7297 2.96003C21.7297 3.29648 22.0025 3.56923 22.3389 3.56923Z" fill="#A83D72"/>
<path d="M24.4412 3.56923C24.7777 3.56923 25.0504 3.29648 25.0504 2.96003C25.0504 2.62358 24.7777 2.35083 24.4412 2.35083C24.1047 2.35083 23.832 2.62358 23.832 2.96003C23.832 3.29648 24.1047 3.56923 24.4412 3.56923Z" fill="#A83D72"/>
<path d="M26.5435 3.56919C26.664 3.56919 26.7817 3.53346 26.8819 3.46652C26.9821 3.39958 27.0602 3.30444 27.1063 3.19312C27.1524 3.0818 27.1645 2.95931 27.141 2.84113C27.1175 2.72296 27.0594 2.61441 26.9743 2.52921C26.8891 2.44401 26.7805 2.38598 26.6623 2.36248C26.5441 2.33897 26.4217 2.35103 26.3103 2.39714C26.199 2.44325 26.1039 2.52134 26.0369 2.62152C25.97 2.7217 25.9343 2.83949 25.9343 2.95998C25.9349 3.12136 25.9993 3.27595 26.1134 3.39006C26.2275 3.50418 26.3821 3.56856 26.5435 3.56919Z" fill="#A83D72"/>
<path d="M16.3528 14.1262C16.8251 13.8812 17.2218 13.5122 17.5004 13.0589C17.779 12.6056 17.929 12.085 17.9343 11.553C17.935 11.1638 17.8589 10.7784 17.7105 10.4186C17.5621 10.0589 17.3442 9.73197 17.0693 9.45655C16.7944 9.18112 16.4678 8.96262 16.1084 8.81353C15.7489 8.66445 15.3636 8.58771 14.9744 8.58771C14.5853 8.58771 14.2 8.66445 13.8405 8.81353C13.481 8.96262 13.1545 9.18112 12.8796 9.45655C12.6047 9.73197 12.3868 10.0589 12.2383 10.4186C12.0899 10.7784 12.0139 11.1638 12.0146 11.553C12.0199 12.085 12.1699 12.6056 12.4485 13.0589C12.7271 13.5122 13.1238 13.8812 13.5961 14.1262C12.7218 14.4137 11.9603 14.9691 11.4194 15.7138C10.8786 16.4584 10.5859 17.3544 10.5829 18.2747H11.6289C11.6278 17.8346 11.7136 17.3987 11.8812 16.9919C12.0489 16.585 12.2951 16.2153 12.6059 15.9037C12.9167 15.5922 13.2858 15.3451 13.6922 15.1764C14.0987 15.0078 14.5344 14.921 14.9744 14.921C15.4144 14.921 15.8501 15.0078 16.2566 15.1764C16.663 15.3451 17.0322 15.5922 17.3429 15.9037C17.6537 16.2153 17.9 16.585 18.0676 16.9919C18.2352 17.3987 18.321 17.8346 18.3199 18.2747H19.3659C19.3629 17.3544 19.0702 16.4584 18.5294 15.7138C17.9886 14.9691 17.227 14.4137 16.3528 14.1262ZM14.9744 9.6392C15.3529 9.6392 15.723 9.75144 16.0377 9.96173C16.3524 10.172 16.5977 10.4709 16.7426 10.8206C16.8874 11.1703 16.9253 11.5551 16.8515 11.9264C16.7776 12.2976 16.5954 12.6386 16.3277 12.9063C16.0601 13.1739 15.7191 13.3562 15.3478 13.43C14.9766 13.5039 14.5918 13.466 14.2421 13.3211C13.8924 13.1763 13.5935 12.931 13.3832 12.6163C13.1729 12.3015 13.0606 11.9315 13.0606 11.553C13.0614 11.0457 13.2632 10.5593 13.622 10.2005C13.9807 9.84179 14.4671 9.63991 14.9744 9.63917V9.6392Z" fill="#A83D72"/>
</g>
<defs>
<clipPath id="clip0_1677_2376">
<rect width="30" height="23.3324" fill="white"/>
</clipPath>
</defs>
</svg>
