<svg width="30" height="36" viewBox="0 0 30 36" fill="none" xmlns="http://www.w3.org/2000/svg">
<g clip-path="url(#clip0_280_5823)">
<path d="M21.4747 24.7338C23.1699 22.7557 23.7609 19.7747 23.1386 15.8458L23.1372 15.8377C22.5846 12.7343 22.2292 10.6566 22.0318 9.41201C21.9634 8.97874 21.9195 8.68102 21.8954 8.4948C21.8874 8.43277 21.8823 8.3894 21.8798 8.36235C21.8789 8.35531 21.8786 8.35109 21.8786 8.35004C21.8789 8.35447 21.8792 8.36091 21.8792 8.36987C21.8792 8.13282 21.6869 7.94046 21.4498 7.94046H7.59715C7.36005 7.94046 7.16775 8.13282 7.16775 8.36987C7.16775 8.36091 7.16805 8.35447 7.16834 8.35004C7.16834 8.35109 7.16805 8.35531 7.16718 8.36235C7.16469 8.3894 7.1596 8.43277 7.15152 8.4948C7.12746 8.68102 7.08358 8.97874 7.01511 9.41201C6.81772 10.6566 6.4624 12.7343 5.90976 15.8377L5.9083 15.8458C5.28606 19.7747 5.87705 22.7557 7.57223 24.7338C9.2412 26.6183 11.6314 27.3669 14.0941 27.4267V34.5634H7.87053C7.63351 34.5634 7.44113 34.7557 7.44113 34.9928C7.44113 35.2298 7.63351 35.4222 7.87053 35.4222H21.1764C21.4134 35.4222 21.6058 35.2298 21.6058 34.9928C21.6058 34.7557 21.4134 34.5634 21.1764 34.5634H14.9529V27.4267C17.3705 27.3342 19.851 26.6387 21.4747 24.7338ZM7.86325 9.54628C7.9024 9.29744 7.94155 9.0486 7.97704 8.79927H21.0699C21.106 9.0486 21.144 9.29771 21.1837 9.54628C21.5837 11.9815 21.3553 10.6214 21.8764 13.6256C21.6885 13.6698 21.7906 13.6471 21.5709 13.6921C20.797 13.8428 19.8938 13.9269 18.8745 13.9085C17.5455 13.8847 16.1284 13.6873 14.6364 13.2803C13.0712 12.8532 11.587 12.6438 10.1976 12.6161L9.80121 12.613V12.6133C9.54842 12.6208 9.29514 12.6219 9.04273 12.6359C8.47692 12.6672 7.91276 12.7332 7.3564 12.8408L7.30475 12.8517C7.69049 10.6211 7.50462 11.7229 7.86325 9.54628ZM14.5235 26.5763C11.7656 26.5763 9.59265 25.7721 8.22445 24.1753C6.34639 21.9002 6.32012 18.7613 6.75596 15.9831C7.07744 14.1727 6.94856 14.9118 7.14651 13.7664C7.40623 13.7055 7.28154 13.7327 7.5205 13.684C8.27531 13.5484 9.03937 13.4687 9.80735 13.4718L10.1805 13.4749C11.5001 13.5011 12.9141 13.7004 14.4105 14.1087C15.9721 14.5347 17.4599 14.7421 18.8591 14.7673C19.9402 14.7865 20.9035 14.6968 21.735 14.535C21.9606 14.4888 21.8647 14.5103 22.0238 14.4728L22.291 15.9831C22.707 18.7546 22.7201 21.9092 20.8225 24.1753C19.4543 25.7721 17.2813 26.5763 14.5235 26.5763ZM27.0696 9.12175H25.4611V8.32355H27.0696V6.71503H27.8678V8.32355H29.4763V9.12175H27.8678V10.7303H27.0696V9.12175ZM2.40673 22.599H4.01525V23.3972H2.40673V25.0057H1.60852V23.3972H0V22.599H1.60852V20.9905H2.40673V22.599ZM7.58422 3.327C7.71364 3.25341 7.79113 3.11316 7.78507 2.96426C7.77901 2.81535 7.69027 2.68203 7.55522 2.61926L5.9125 1.85309L5.14589 0.210372C5.01517 -0.070124 4.55373 -0.070124 4.42301 0.210372L3.65684 1.85309L2.01412 2.61926C1.87387 2.68463 1.78383 2.82574 1.78383 2.9807C1.78383 3.13567 1.87387 3.27678 2.01412 3.34215L3.65684 4.10875L4.42301 5.75147C4.48707 5.88912 4.62386 5.97829 4.77579 5.98132C4.77882 5.98175 4.78142 5.98175 4.78445 5.98175C4.93292 5.98175 5.06927 5.89908 5.1381 5.76705L5.91206 4.28103L7.58422 3.327ZM5.25887 3.80834L4.80393 4.68143L4.31826 3.63996C4.27886 3.55512 4.21047 3.48672 4.12563 3.44733L3.12615 2.9807L4.12563 2.51451C4.21047 2.47512 4.27886 2.40673 4.31826 2.32188L4.78445 1.3224L5.25108 2.32188C5.29047 2.40673 5.35886 2.47512 5.4437 2.51451L6.51894 3.0162L5.4147 3.64645C5.34847 3.68411 5.29393 3.74038 5.25887 3.80834ZM29.7698 26.1117L28.1271 25.3455L27.3609 23.7028C27.2956 23.5625 27.1544 23.4725 26.9995 23.4725C26.8445 23.4725 26.7034 23.5625 26.638 23.7028L25.8714 25.3455L24.2287 26.1117C24.0885 26.177 23.9984 26.3182 23.9984 26.4731C23.9984 26.6281 24.0885 26.7692 24.2287 26.8346L25.8714 27.6012L26.638 29.2439C26.7021 29.3815 26.8389 29.4707 26.9908 29.4737C26.9939 29.4742 26.9965 29.4742 26.9995 29.4742C27.148 29.4742 27.2847 29.3915 27.3531 29.2595L28.1267 27.7734L29.7988 26.8194C29.9282 26.7458 30.0057 26.6056 29.9997 26.4567C29.9936 26.3078 29.9049 26.1744 29.7698 26.1117ZM27.6293 27.1389C27.5631 27.1765 27.5085 27.2328 27.4735 27.3008L27.019 28.1738L26.5329 27.1324C26.4935 27.0475 26.4251 26.9791 26.3402 26.9397L25.3407 26.4731L26.3402 26.0069C26.4251 25.9675 26.4935 25.8991 26.5329 25.8143L26.9995 24.8148L27.4657 25.8143C27.5051 25.8991 27.5735 25.9675 27.6583 26.0069L28.7335 26.5086L27.6293 27.1389Z" fill="#901340"/>
</g>
<defs>
<clipPath id="clip0_280_5823">
<rect width="30" height="35.4222" fill="white"/>
</clipPath>
</defs>
</svg>
