<svg width="17" height="18" viewBox="0 0 17 18" fill="none" xmlns="http://www.w3.org/2000/svg">
<path d="M8.43555 1C8.43555 1 11.3688 4.31802 11.3688 6.31889C11.3688 8.18148 9.77854 9.44055 8.49358 9.44055" stroke="#A83D72" stroke-width="0.46875" stroke-miterlimit="10"/>
<path d="M8.56414 1C8.56414 1 5.63086 4.31802 5.63086 6.31889C5.63086 8.18148 7.22115 9.44055 8.50611 9.44055" stroke="#A83D72" stroke-width="0.46875" stroke-miterlimit="10"/>
<path d="M7.96606 8.07562C7.17687 8.07562 6.53711 7.43587 6.53711 6.64667" stroke="#A83D72" stroke-width="0.46875" stroke-miterlimit="10"/>
<path d="M13.0664 9.09741C13.0664 9.09741 15.9997 12.4154 15.9997 14.4163C15.9997 16.2789 14.4094 17.538 13.1244 17.538" stroke="#A83D72" stroke-width="0.46875" stroke-miterlimit="10"/>
<path d="M13.195 9.09741C13.195 9.09741 10.2617 12.4154 10.2617 14.4163C10.2617 16.2789 11.852 17.538 13.137 17.538" stroke="#A83D72" stroke-width="0.46875" stroke-miterlimit="10"/>
<path d="M12.5969 16.173C11.8077 16.173 11.168 15.5333 11.168 14.7441" stroke="#A83D72" stroke-width="0.46875" stroke-miterlimit="10"/>
<path d="M3.80469 9.09741C3.80469 9.09741 6.73797 12.4154 6.73797 14.4163C6.73797 16.2789 5.14768 17.538 3.86272 17.538" stroke="#A83D72" stroke-width="0.46875" stroke-miterlimit="10"/>
<path d="M3.93328 9.09741C3.93328 9.09741 1 12.4154 1 14.4163C1 16.2789 2.59029 17.538 3.87525 17.538" stroke="#A83D72" stroke-width="0.46875" stroke-miterlimit="10"/>
<path d="M3.3352 16.173C2.54601 16.173 1.90625 15.5333 1.90625 14.7441" stroke="#A83D72" stroke-width="0.46875" stroke-miterlimit="10"/>
</svg>
