<svg width="15" height="15" viewBox="0 0 15 15" fill="none" xmlns="http://www.w3.org/2000/svg">
<path d="M7.85339 0C7.92023 0.01586 7.89277 0.00552209 7.93777 0.0257721C7.95441 0.0346521 7.98293 0.0505022 8.02167 0.0732422C8.08487 0.110462 8.15476 0.154102 8.22968 0.204292C8.44342 0.347462 8.65705 0.514373 8.85726 0.704643C9.23444 1.06491 9.55655 1.49566 9.70807 2.00087C9.73112 2.07748 9.74424 2.15665 9.76226 2.23463C9.99647 2.07548 10.244 1.93739 10.4925 1.80236C11.2468 1.40685 12.0015 1.15752 12.7171 1.12728C13.0302 1.11415 13.3297 1.14392 13.6131 1.22099C13.6932 1.24278 13.7559 1.30552 13.7777 1.38579C13.8548 1.66911 13.8845 1.96864 13.8714 2.28177C13.8412 2.99738 13.5919 3.75211 13.1964 4.50632C13.0661 4.75781 12.9187 4.9998 12.7641 5.23674C13.3726 5.34725 13.869 5.70995 14.2941 6.14189C14.4844 6.34209 14.6513 6.55572 14.7943 6.76951C14.8445 6.84458 14.8883 6.91446 14.9254 6.97748C14.9482 7.01622 14.9641 7.04478 14.9728 7.06138C15.0103 7.13252 15.0089 7.2178 14.969 7.2874C14.6811 7.79032 14.1067 8.1063 13.3371 8.28485C13.015 8.36204 12.6857 8.39989 12.3561 8.42734C12.4757 8.54285 12.5712 8.67835 12.6529 8.82238C12.8671 9.22081 12.884 9.64027 12.7862 10.0263C12.774 10.0745 12.7608 10.1182 12.7473 10.1568C12.7388 10.1815 12.7315 10.2 12.7264 10.2119C12.7002 10.2732 12.6489 10.3205 12.5856 10.3417C11.4306 10.7297 10.4507 10.731 9.63914 10.3966C8.97051 10.1212 8.44879 9.63354 8.05634 8.9983C7.83845 8.64569 7.6738 8.26956 7.55451 7.89359L7.53845 7.83973C7.45974 7.9502 7.39565 8.06985 7.33185 8.18919C7.11229 8.61793 6.98092 9.08715 6.98092 9.58046C6.98092 10.2144 7.19896 10.8478 7.68509 11.4728C7.71286 11.5172 7.70614 11.4977 7.71407 11.5272C8.56597 12.4749 9.27078 13.5413 9.88601 14.6543C9.94734 14.7683 9.9048 14.9105 9.79082 14.9718C9.67684 15.0332 9.53476 14.9906 9.47344 14.8766C8.52981 13.1241 7.32439 11.6301 5.91799 10.3737C4.65776 9.24782 3.30722 8.37259 1.95716 7.71845C1.48532 7.48986 1.04756 7.30526 0.655397 7.16118C0.518837 7.11083 0.397867 7.06935 0.294077 7.03607C0.258057 7.02446 0.226807 7.01485 0.200717 7.00692C0.185447 7.00235 0.175517 6.99958 0.171267 6.99837C0.0465773 6.96345 -0.0262029 6.83403 0.00876713 6.70938C0.0311871 6.63536 0.0853572 6.57477 0.160717 6.55009C0.189427 6.54059 0.220827 6.54259 0.250907 6.5388L0.297587 6.54689C0.323207 6.55404 0.370247 6.5681 0.437197 6.58959C0.547237 6.62502 0.674347 6.66864 0.817157 6.72111C1.22348 6.87051 1.67532 7.06094 2.16161 7.29653C3.54895 7.96867 4.93566 8.86741 6.23033 10.0242C6.54025 10.3068 6.41205 10.1847 6.61896 10.3857C6.54556 10.1235 6.52545 9.85112 6.51217 9.58046C6.51217 9.00625 6.66338 8.4661 6.9147 7.97555C7.00243 7.80419 7.09657 7.65098 7.19103 7.51747L7.21927 7.47856L7.10572 7.44469C6.72975 7.32537 6.35361 7.16087 6.00115 6.94297C5.36592 6.55036 4.87827 6.02868 4.60284 5.36005C4.26866 4.5483 4.2699 3.56839 4.65776 2.41327C4.67897 2.34995 4.72627 2.2987 4.78764 2.27245C4.79951 2.26725 4.81799 2.26006 4.84272 2.25156C4.88131 2.23796 4.92494 2.22483 4.97319 2.21265C5.3592 2.11484 5.77869 2.13175 6.17693 2.34601C6.32584 2.42119 6.451 2.53003 6.57197 2.64276C6.59213 2.31226 6.64369 1.98469 6.71451 1.66164C6.89303 0.892004 7.20904 0.317657 7.7118 0.0295868C7.76245 0.000146791 7.79737 0.00089 7.85339 0ZM7.83842 0.510231C7.44979 0.814641 7.28499 1.30506 7.17116 1.76756C7.10081 2.07045 7.05702 2.39654 7.03522 2.72812C7.02026 2.95408 7.01721 3.15275 7.02069 3.30701C7.02116 3.32624 7.02163 3.3392 7.02179 3.34502C7.03261 3.59798 6.69049 3.68604 6.57777 3.45944C6.40593 3.11386 6.19523 2.88804 5.95504 2.75893C5.67415 2.60787 5.37047 2.59549 5.08836 2.66706L5.06699 2.67287C4.8532 3.34425 4.74305 4.07408 4.9048 4.76959C4.95085 4.96795 4.97468 5.01967 5.03633 5.18153C5.2707 5.75071 5.69077 6.20008 6.24753 6.54415C6.56463 6.74008 6.90596 6.88962 7.24745 6.99793C7.36694 7.03578 7.4774 7.06586 7.57612 7.08875L7.57858 7.08918L9.02966 5.63809C9.08736 5.58207 9.12994 5.57614 9.20637 5.57357L9.24009 5.57371C9.33896 5.61399 9.30083 5.58879 9.36111 5.63809C9.45263 5.72965 9.45263 5.87797 9.36111 5.9695L7.90998 7.42076L7.91061 7.42303C7.93335 7.52178 7.96339 7.63241 8.00124 7.75186C8.10971 8.09334 8.25913 8.43471 8.45502 8.75178C8.79912 9.30872 9.24849 9.72879 9.81763 9.96317C10.6242 10.2886 11.5152 10.1908 12.3259 9.93247L12.3318 9.91115C12.4032 9.629 12.391 9.32533 12.24 9.04444C12.1109 8.80412 11.885 8.59339 11.5394 8.42159C11.3128 8.30882 11.401 7.96671 11.6539 7.97741C11.6598 7.97769 11.6726 7.97816 11.6919 7.97862C11.8461 7.98214 12.0448 7.9791 12.2708 7.96413C12.6024 7.94214 12.9283 7.8985 13.2313 7.82816C13.6978 7.71753 14.1788 7.54511 14.4883 7.16089C14.4268 7.06292 14.4549 7.10644 14.4047 7.03015C14.2756 6.83726 14.1249 6.64426 13.9543 6.4648C13.4672 5.95226 12.9248 5.65594 12.3436 5.67074C12.1457 5.67594 12.0311 5.44856 12.1527 5.2923C12.1545 5.29004 12.1586 5.28453 12.1652 5.27614C12.1762 5.26133 12.1893 5.24379 12.2041 5.2235C12.2468 5.16477 12.2947 5.0964 12.3465 5.01934C12.4946 4.7984 12.6429 4.55242 12.7812 4.28875C13.1474 3.59036 13.3763 2.89762 13.403 2.26193C13.4103 2.10095 13.4028 1.93951 13.381 1.7799C13.3748 1.73385 13.3642 1.68855 13.3558 1.64292C13.1527 1.59666 12.9441 1.59041 12.7368 1.59577C12.1013 1.6226 11.4085 1.85135 10.7103 2.21756C10.4466 2.35592 10.2006 2.50423 9.97967 2.6524C9.90264 2.70416 9.83428 2.75204 9.77569 2.79479C9.75538 2.80959 9.73768 2.82255 9.72303 2.83385C9.71447 2.84025 9.70901 2.84436 9.7067 2.84619C9.5506 2.96783 9.32327 2.85322 9.32831 2.65533C9.34311 2.07411 9.04694 1.53166 8.53425 1.04444C8.35495 0.873851 8.1619 0.723107 7.96906 0.594017C7.89292 0.543817 7.93624 0.571911 7.83842 0.510231Z" fill="#A83D72"/>
</svg>
