<svg width="15" height="15" viewBox="0 0 15 15" fill="none" xmlns="http://www.w3.org/2000/svg">
<path d="M11.8355 6.49917C11.4132 5.48643 9.94692 3.38124 8.76867 1.68966L8.7614 1.6792C8.29857 1.01547 7.92516 0.478482 7.68369 0.113637C7.66675 0.0797043 7.64075 0.0511249 7.60856 0.0310676C7.57637 0.0110102 7.53926 0.000258583 7.50134 4.60611e-06C7.46341 -0.000249371 7.42616 0.0100043 7.39371 0.0296287C7.36125 0.0492531 7.33487 0.0774817 7.31748 0.111185C7.06982 0.485495 6.69797 1.02003 6.23777 1.67966L6.2243 1.69904C5.0487 3.38715 3.58568 5.48816 3.16369 6.49917C2.91802 7.07827 2.79001 7.70045 2.78711 8.3295C2.78665 9.21865 3.05471 10.0872 3.5562 10.8215C4.05822 11.5584 4.76432 12.1328 5.58796 12.4745C6.12993 12.6996 6.70787 12.8259 7.29437 12.8471V14.7946C7.29453 14.8489 7.31625 14.9011 7.35477 14.9395C7.39329 14.9779 7.44547 14.9994 7.49986 14.9994C7.55425 14.9994 7.60642 14.9779 7.64494 14.9395C7.68346 14.9011 7.70518 14.8489 7.70534 14.7946V12.8471C8.2917 12.8259 8.86949 12.6996 9.41129 12.4745C10.2352 12.133 10.9415 11.5585 11.4436 10.8215C11.9449 10.0872 12.2128 9.2186 12.2121 8.3295C12.2099 7.70037 12.0819 7.07805 11.8355 6.49917ZM11.7915 8.62692C11.7394 9.33088 11.5028 10.0087 11.1055 10.5922C10.6478 11.2631 10.0043 11.7859 9.25389 12.0965C8.76199 12.3009 8.23763 12.4162 7.70534 12.4368V10.9861L11.7915 8.62692ZM7.70534 10.5141V8.2811L11.2534 6.23277C11.339 6.39436 11.4075 6.53666 11.4573 6.65658C11.6582 7.13077 11.7736 7.63677 11.7982 8.15117L7.70534 10.5141ZM7.70534 7.80915V5.58933L10.0276 4.24868C10.4717 4.91578 10.8084 5.44876 11.055 5.87529L7.70534 7.80915ZM7.70534 5.11722V0.87499C7.91934 1.18743 8.16327 1.53827 8.42466 1.91321L8.44686 1.94515C8.87194 2.55519 9.35252 3.24495 9.79943 3.90767L7.70534 5.11722ZM5.19983 3.90767C5.64228 3.25259 6.1174 2.57039 6.53756 1.96707L6.6159 1.85443C6.86165 1.50123 7.0912 1.17123 7.29437 0.8749V5.11722L5.19983 3.90767ZM3.94479 5.8753C4.18954 5.45086 4.52609 4.91787 4.972 4.24869L7.29437 5.58933V7.80916L3.94479 5.8753ZM3.20145 8.15117C3.22583 7.63672 3.34113 7.13064 3.542 6.6564C3.5905 6.53976 3.65737 6.40082 3.74608 6.23286L7.29437 8.2811V10.5141L3.20145 8.15117ZM7.29437 10.9861V12.4368C6.76196 12.4162 6.23747 12.301 5.74546 12.0965C4.9952 11.7858 4.35187 11.263 3.8943 10.5922C3.49707 10.0087 3.26064 9.33087 3.20882 8.62693L7.29437 10.9861Z" fill="#A83D72"/>
</svg>
