<svg width="15" height="12" viewBox="0 0 15 12" fill="none" xmlns="http://www.w3.org/2000/svg">
<path d="M2.98327 2.67005e-05L3.02538 0.00735092L7.5 1.20639L11.9747 0.00735092L12.0168 2.67005e-05C12.1242 -0.0013133 12.1996 0.0478155 12.2503 0.140285C12.252 0.144065 12.252 0.144061 12.2617 0.166531C12.2718 0.189851 12.2851 0.220241 12.3017 0.258511C12.3493 0.367761 12.4146 0.518091 12.5008 0.716091C12.7471 1.28176 13.1098 2.11471 13.6114 3.26626L13.6129 3.26999C14.215 4.71622 14.2588 5.88393 13.8049 6.76681C13.4258 7.50918 12.7615 7.92275 11.9952 8.19577L12.7027 10.8365L14.705 10.3L14.7518 10.2923C14.8719 10.2951 14.9501 10.3555 14.9919 10.4657C15.0255 10.5908 14.9512 10.7193 14.8262 10.7528L10.369 11.947C10.2441 11.9806 10.1156 11.9064 10.082 11.7813C10.0486 11.6563 10.1227 11.5278 10.2477 11.4942L12.25 10.9578L11.5424 8.3171C10.7035 8.48342 10.0034 8.43105 9.26066 7.98446C8.42617 7.44686 7.8802 6.4136 7.67848 4.86007L7.67801 4.85629C7.61867 4.33291 7.55929 3.80954 7.49997 3.28616C7.44059 3.80954 7.38137 4.33291 7.32203 4.85629L7.32156 4.86007C7.11983 6.4136 6.57391 7.44686 5.73922 7.98446C5.14478 8.36575 4.43384 8.46298 3.74279 8.36941C3.64713 8.35647 3.55268 8.33444 3.4576 8.3171L2.75006 10.9578L4.75216 11.4942C4.87727 11.5278 4.95141 11.6563 4.91801 11.7813C4.88446 11.9064 4.75598 11.9806 4.63082 11.9471L0.173786 10.7528C0.0486657 10.7193 -0.0255143 10.5908 0.00808575 10.4657C0.0310857 10.3915 0.082536 10.3305 0.158196 10.3047C0.186756 10.2949 0.218196 10.2965 0.248246 10.2923L0.295076 10.3L2.29717 10.8365L3.00486 8.19577C2.24299 7.9559 1.57437 7.4769 1.19519 6.76681C0.741236 5.88394 0.785036 4.71622 1.38698 3.26999L1.38851 3.26626C1.89023 2.11471 2.25291 1.28176 2.49905 0.716091C2.58527 0.518091 2.65073 0.367761 2.69835 0.258511C2.71499 0.220241 2.72808 0.189851 2.73831 0.166531C2.74808 0.144071 2.74808 0.144075 2.74975 0.140285C2.77999 0.0768055 2.83202 0.0274933 2.90113 0.00808334C2.92756 0.000823341 2.95581 0.0027767 2.98327 2.67005e-05ZM13.4158 4.1069C13.2818 4.19278 13.1364 4.25552 12.9922 4.32071C12.414 4.56845 11.7167 4.71634 10.8996 4.71634C9.93498 4.70981 8.9839 4.51113 8.07492 4.19662L8.14342 4.80099C8.28246 5.83572 8.59967 6.97647 9.51459 7.5903C10.1005 7.9678 10.8441 8.02719 11.6496 7.81143C12.4549 7.59555 13.0693 7.17233 13.388 6.55239C13.7223 5.87735 13.6785 5.11306 13.5015 4.39907C13.4771 4.30067 13.4443 4.20444 13.4158 4.1069ZM4.1005 3.20938C3.34796 3.20938 2.7132 3.34415 2.19253 3.56723C2.0128 3.64426 1.8605 3.72623 1.7357 3.8074C1.69221 3.83609 1.71495 3.82064 1.66765 3.85373C1.34507 4.75314 1.20012 5.66469 1.61211 6.55239C1.93085 7.17233 2.54503 7.59555 3.35053 7.81143C4.15603 8.02719 4.89958 7.9678 5.48552 7.5903C6.40364 6.97952 6.71429 5.8331 6.85668 4.80087L6.97292 3.77438C6.05423 3.42197 5.08271 3.23685 4.1005 3.20938ZM11.9011 0.512417L7.78225 1.61593C7.79827 1.75704 7.81429 1.89841 7.83035 2.03952C7.99679 3.50662 7.93483 2.95993 8.01633 3.67953C8.93722 4.03579 9.91573 4.20792 10.8996 4.24759C11.6522 4.24759 12.2869 4.11301 12.8076 3.88992C12.9652 3.82443 13.1147 3.74209 13.2597 3.65268C13.2311 3.57254 13.2555 3.64029 13.1806 3.45126C12.8108 2.60196 12.4409 1.75265 12.071 0.903164C12.0144 0.772874 11.9577 0.642547 11.9011 0.512417ZM3.09909 0.512234C3.04245 0.642544 2.98569 0.772854 2.92894 0.903164C2.23086 2.50655 2.55922 1.75266 1.94383 3.16525L2.00793 3.13632C2.58594 2.88864 3.2834 2.74063 4.10051 2.74063C5.1021 2.73715 6.08658 2.96969 7.0265 3.30154L7.16966 2.03952C7.18583 1.89841 7.20185 1.75704 7.21786 1.61593L3.09909 0.512234Z" fill="#A83D72"/>
</svg>
