<svg width="15" height="19" viewBox="0 0 15 19" fill="none" xmlns="http://www.w3.org/2000/svg">
<path d="M9.98875 0C10.6041 0.01899 11.1655 0.26855 11.6829 0.58519C11.8806 0.71024 12.0628 0.843982 12.2254 0.977882C12.2827 1.025 12.3336 1.06894 12.3777 1.10875C12.405 1.13336 12.4243 1.15158 12.4356 1.1625C12.5248 1.24904 12.5485 1.38318 12.4944 1.49511C12.4853 1.51365 12.4692 1.54525 12.4461 1.58822C12.4086 1.65808 12.3642 1.73528 12.3133 1.81826C12.1684 2.0549 11.9989 2.29115 11.8055 2.51298C11.3302 3.05779 10.7886 3.42865 10.1778 3.53533C10.1627 3.53797 10.1474 3.54062 10.1322 3.54283C9.44938 3.64673 8.74251 3.41851 8.05179 2.98187C7.89948 2.88499 7.75053 2.78206 7.60948 2.66923C7.78 3.36461 7.8187 4.07976 7.80312 4.7927C8.74437 4.89688 9.43433 5.44078 9.90384 6.24135C10.3705 5.32751 11.2934 4.79472 12.3077 4.76919C13.7941 4.76919 15 5.96549 15 7.44216C15 8.91905 13.7941 10.1153 12.3077 10.1153L12.1238 10.1078C12.4418 10.5486 12.5825 11.0776 12.5962 11.6153C12.5962 13.0921 11.3901 14.2884 9.90384 14.2884L9.71981 14.2809C10.0377 14.7217 10.1786 15.2507 10.1923 15.7884C10.1923 17.2653 8.98625 18.4616 7.5 18.4616C6.01355 18.4616 4.80769 17.2653 4.80769 15.7884C4.80581 15.2451 4.97783 14.7249 5.28207 14.2779L5.09615 14.2884C3.60971 14.2884 2.40384 13.0921 2.40384 11.6153C2.40236 11.0733 2.57308 10.5533 2.87653 10.1072C2.7849 10.1164 2.8461 10.1114 2.6923 10.1153C1.20587 10.1153 0 8.91905 0 7.44216C0 5.96549 1.20587 4.76919 2.6923 4.76919C3.74529 4.77727 4.60225 5.33899 5.10086 6.2502C5.50836 5.42592 6.32547 4.89881 7.226 4.78631C7.25961 3.97948 7.16442 3.17044 6.94918 2.3928C6.71629 1.59313 6.34427 0.94933 5.81374 0.51083C5.6909 0.40924 5.67365 0.227422 5.77522 0.104622C5.85806 0.0114519 5.91027 0.0122223 6.02556 0.00131226C6.15137 0.0392423 6.10181 0.0128116 6.18123 0.0661316C6.73508 0.529832 7.13056 1.15651 7.37041 1.83406C7.39633 1.7892 7.37959 1.81791 7.42127 1.74882C7.56628 1.51218 7.73565 1.27574 7.92911 1.05415C8.40426 0.509153 8.94604 0.138433 9.55657 0.0315628C9.57181 0.0289728 9.58701 0.0265 9.60225 0.02425C9.81596 -0.00186997 9.68749 0.00996 9.98875 0ZM7.5 13.6924C6.33111 13.6924 5.38462 14.6314 5.38462 15.7884C5.38462 16.9456 6.33111 17.8846 7.5 17.8846C8.66871 17.8846 9.61538 16.9456 9.61538 15.7884C9.61538 14.6314 8.66871 13.6924 7.5 13.6924ZM5.09615 9.51924C3.92725 9.51924 2.98076 10.4582 2.98076 11.6153C2.98076 12.7725 3.92725 13.7115 5.09615 13.7115C6.26278 13.7089 7.18206 12.7673 7.21153 11.6155V11.6153C7.19538 10.4282 6.26706 9.54851 5.09615 9.51924ZM9.90384 9.51924C8.73702 9.52188 7.81773 10.4635 7.78846 11.6153V11.6155C7.80442 12.8026 8.73274 13.6822 9.90384 13.7115C11.0725 13.7115 12.0192 12.7725 12.0192 11.6153C12.0192 10.4582 11.0725 9.51924 9.90384 9.51924ZM7.5 12.8162C7.44611 12.9235 7.38336 13.0257 7.31447 13.1235C7.4074 13.1141 7.34563 13.1192 7.5 13.1152C7.65889 13.1194 7.5924 13.1141 7.69942 13.125C7.5599 12.93 7.62678 13.0326 7.5 12.8162ZM7.68591 10.1048L7.5 10.1153C7.3462 10.1114 7.4074 10.1164 7.31557 10.1072C7.38562 10.2039 7.44817 10.3061 7.50038 10.4137C7.62543 10.185 7.56177 10.287 7.68591 10.1048ZM12.3077 5.34611C11.1388 5.34611 10.1923 6.2851 10.1923 7.44216C10.1923 8.59938 11.1388 9.53837 12.3077 9.53837C13.4766 9.53837 14.4231 8.59938 14.4231 7.44216C14.4231 6.2851 13.4766 5.34611 12.3077 5.34611ZM2.6923 5.34611C1.52341 5.34611 0.57692 6.2851 0.57692 7.44216C0.57692 8.59938 1.52341 9.53837 2.6923 9.53837C3.85894 9.53576 4.77822 8.59413 4.80769 7.44235V7.44216C4.79154 6.25505 3.86322 5.37543 2.6923 5.34611ZM7.5 5.34611C6.33317 5.34875 5.41389 6.29038 5.38462 7.44216V7.44235C5.40057 8.62942 6.32889 9.50909 7.5 9.53837C8.66871 9.53837 9.61538 8.59938 9.61538 7.44216C9.61538 6.2851 8.66871 5.34611 7.5 5.34611ZM9.90384 8.64312C9.84995 8.75038 9.7872 8.85254 9.71832 8.95039C9.81125 8.94102 9.74947 8.94607 9.90384 8.94231C10.0627 8.94625 9.99644 8.94102 10.1033 8.95187C9.96375 8.75698 10.0306 8.85966 9.90384 8.64312ZM5.09577 8.6439C4.97106 8.87168 5.03419 8.77068 4.91174 8.95039C5.00356 8.94102 4.94217 8.94607 5.09616 8.94231C5.24996 8.94606 5.18856 8.94102 5.28039 8.95039C5.21034 8.85346 5.14779 8.7513 5.09577 8.6439ZM9.98721 0.57769C9.75418 0.5837 9.85331 0.57505 9.68899 0.59457C9.67793 0.59625 9.66702 0.597981 9.65615 0.599861C9.19639 0.680381 8.76014 0.978983 8.36389 1.43327C8.19336 1.6288 8.04216 1.83951 7.91317 2.05024C7.87466 2.11388 7.89101 2.08611 7.86374 2.13341L7.87595 2.14393C8.02095 2.26317 8.18379 2.38279 8.35995 2.49418C8.94437 2.86356 9.5262 3.05139 10.0456 2.9725C10.0565 2.97082 10.0676 2.96894 10.0785 2.96706C10.538 2.88668 10.9745 2.58808 11.3706 2.13379C11.5413 1.93827 11.6923 1.72759 11.8215 1.51687C11.8599 1.45303 11.8436 1.48101 11.8708 1.43347L11.8586 1.42319C11.7137 1.3039 11.5507 1.1841 11.3745 1.07271C10.9208 0.785002 10.5225 0.62578 9.98721 0.57769Z" fill="#A83D72"/>
</svg>
