<svg width="15" height="15" viewBox="0 0 15 15" fill="none" xmlns="http://www.w3.org/2000/svg">
<g clip-path="url(#clip0_305_37)">
<path d="M12.27 5.79069C12.4079 5.08663 12.3882 4.36077 12.2124 3.66521C12.0365 2.96965 11.7089 2.32165 11.2529 1.76772C10.797 1.2138 10.2241 0.767682 9.57529 0.461404C8.92651 0.155127 8.21797 -0.00371623 7.50053 -0.00372314C6.78308 -0.00373005 6.07454 0.1551 5.42575 0.461364C4.77697 0.767629 4.20403 1.21373 3.74808 1.76765C3.29212 2.32157 2.96445 2.96956 2.78859 3.66512C2.61274 4.36067 2.59305 5.08653 2.73095 5.7906C2.13536 6.08029 1.60543 6.48892 1.17384 6.99129C0.742252 7.49366 0.418154 8.07912 0.221534 8.71157C0.0249142 9.34401 -0.0400592 10.01 0.0306211 10.6686C0.101301 11.3271 0.306137 11.9641 0.632495 12.5405C0.958853 13.1168 1.39982 13.6201 1.92819 14.0194C2.45656 14.4188 3.06113 14.7056 3.70463 14.8623C4.34813 15.019 5.01691 15.0422 5.66973 14.9305C6.32254 14.8188 6.94555 14.5746 7.50033 14.2128C8.05512 14.575 8.67824 14.8196 9.33124 14.9317C9.98424 15.0437 10.6533 15.0207 11.297 14.8641C11.9408 14.7076 12.5457 14.4208 13.0743 14.0214C13.6029 13.622 14.0441 13.1185 14.3706 12.542C14.6971 11.9654 14.902 11.3281 14.9726 10.6694C15.0433 10.0106 14.9781 9.34437 14.7813 8.71174C14.5845 8.07911 14.2601 7.49354 13.8282 6.99114C13.3962 6.48874 12.8659 6.08019 12.27 5.79069V5.79069ZM7.50024 0.480767C8.66138 0.482089 9.77459 0.943936 10.5956 1.76499C11.4167 2.58604 11.8785 3.69924 11.8799 4.86038C11.8779 5.10527 11.8546 5.34952 11.8102 5.59035C11.1055 5.32227 10.3471 5.2257 9.59771 5.30859C8.84832 5.39149 8.1294 5.65149 7.50033 6.0671C6.87129 5.65151 6.15241 5.39152 5.40306 5.30861C4.6537 5.2257 3.89537 5.32224 3.19069 5.59026C3.14635 5.34945 3.12306 5.10523 3.12109 4.86038C3.12234 3.6993 3.5841 2.58612 4.40506 1.76507C5.22603 0.944015 6.33916 0.482138 7.50024 0.480767ZM9.49134 8.73994C9.21219 7.81536 8.66203 6.9958 7.91204 6.38728C8.47383 6.04325 9.10778 5.83426 9.76402 5.77674C10.4203 5.71923 11.0809 5.81476 11.694 6.05582C11.5291 6.6297 11.2487 7.16383 10.8699 7.6254C10.4911 8.08698 10.022 8.46625 9.49134 8.73994ZM5.94669 8.94429C6.20729 8.0384 6.75191 7.24013 7.50033 6.66705C8.24878 7.24009 8.79337 8.03838 9.05389 8.94429C8.0552 9.33607 6.94537 9.33607 5.94669 8.94429V8.94429ZM4.86062 5.76048C5.64625 5.76435 6.41617 5.98088 7.08864 6.38709C6.33855 6.9956 5.78833 7.81519 5.50915 8.73984C4.97852 8.46617 4.50944 8.08691 4.13072 7.62535C3.752 7.16379 3.47165 6.62968 3.30688 6.05582C3.8023 5.86293 4.32898 5.76282 4.86062 5.76048ZM5.28006 10.1401C5.28201 10.861 5.44548 11.5723 5.75844 12.2217C6.0714 12.8711 6.5259 13.4421 7.08854 13.8928C6.58604 14.1942 6.02798 14.3913 5.44766 14.4723C4.86734 14.5533 4.27664 14.5167 3.71081 14.3644C3.14497 14.2122 2.61559 13.9476 2.15425 13.5864C1.6929 13.2251 1.30904 12.7746 1.02557 12.2618C0.742102 11.749 0.564824 11.1843 0.504316 10.6015C0.443808 10.0187 0.50131 9.42967 0.67339 8.86956C0.84547 8.30945 1.1286 7.78973 1.5059 7.34142C1.8832 6.8931 2.34693 6.52537 2.86943 6.26017C3.06253 6.89665 3.38413 7.48676 3.81434 7.99402C4.24456 8.50128 4.77426 8.91491 5.37068 9.20932C5.3107 9.51596 5.28036 9.82765 5.28006 10.1401ZM5.83051 9.40976C6.90558 9.82174 8.095 9.82174 9.17007 9.40976C9.2145 9.65071 9.23782 9.89508 9.23977 10.1401C9.23965 10.8143 9.08238 11.4792 8.78044 12.082C8.4785 12.6849 8.0402 13.209 7.50033 13.6129C6.96041 13.209 6.52207 12.6849 6.22009 12.0821C5.91811 11.4792 5.76082 10.8143 5.7607 10.1401C5.76267 9.89508 5.78603 9.65071 5.8305 9.40976H5.83051ZM9.72043 10.1401C9.72013 9.82768 9.68978 9.51602 9.62981 9.20942C10.2263 8.91503 10.7561 8.50141 11.1864 7.99414C11.6167 7.48686 11.9384 6.89671 12.1315 6.26017C12.6554 6.52463 13.1205 6.89203 13.4991 7.34039C13.8777 7.78876 14.1619 8.30888 14.3349 8.86964C14.5078 9.4304 14.5658 10.0203 14.5055 10.604C14.4452 11.1877 14.2678 11.7533 13.9839 12.2668C13.7 12.7804 13.3154 13.2314 12.8532 13.5929C12.3909 13.9544 11.8605 14.219 11.2937 14.3708C10.7268 14.5226 10.1352 14.5585 9.55415 14.4763C8.9731 14.3942 8.4146 14.1957 7.91204 13.8927C8.47466 13.442 8.92914 12.871 9.24208 12.2216C9.55503 11.5722 9.71848 10.861 9.72043 10.1401Z" fill="#A83D72"/>
</g>
<defs>
<clipPath id="clip0_305_37">
<rect width="15" height="15" fill="white"/>
</clipPath>
</defs>
</svg>
