<svg width="17" height="16" viewBox="0 0 17 16" fill="none" xmlns="http://www.w3.org/2000/svg">
<path d="M8.96401 1.28843L10.8808 5.17222C10.9561 5.32495 11.1018 5.4308 11.2704 5.45529L15.5564 6.07808C15.9808 6.13975 16.1503 6.66132 15.8432 6.96068L12.7418 9.9838C12.6198 10.1027 12.5642 10.274 12.593 10.4418L13.3251 14.7105C13.3976 15.1332 12.9539 15.4556 12.5743 15.256L8.7408 13.2406C8.59006 13.1613 8.40997 13.1613 8.25923 13.2406L4.42568 15.256C4.04607 15.4556 3.6024 15.1332 3.6749 14.7105L4.40704 10.4418C4.43583 10.2739 4.38018 10.1027 4.25823 9.9838L1.15683 6.96068C0.849716 6.66132 1.01919 6.13975 1.4436 6.07808L5.72962 5.45529C5.89816 5.4308 6.04385 5.32495 6.11922 5.17222L8.03599 1.28843C8.2258 0.903855 8.77421 0.903855 8.96401 1.28843Z" stroke="#A83D72" stroke-width="0.46875" stroke-miterlimit="10"/>
</svg>
