<svg width="15" height="15" viewBox="0 0 15 15" fill="none" xmlns="http://www.w3.org/2000/svg">
<g clip-path="url(#clip0_305_31)">
<path d="M9.89418 4.15943V4.1577C9.92554 4.12332 9.94506 4.07979 9.94987 4.03351C9.95505 3.97718 9.93768 3.92111 9.90157 3.87758C9.86546 3.83405 9.81355 3.80662 9.75724 3.80131L8.28376 3.66175L7.69737 2.302L7.67389 2.2495L7.66743 2.25405C7.64456 2.22524 7.6146 2.20285 7.5805 2.18907C7.54639 2.17529 7.5093 2.17058 7.47283 2.17541C7.43636 2.18024 7.40177 2.19444 7.37243 2.21663C7.34308 2.23881 7.31999 2.26822 7.30541 2.30199L6.71719 3.66102L5.2579 3.79768C5.2149 3.79872 5.17321 3.8127 5.13827 3.8378C5.10334 3.8629 5.07679 3.89795 5.06209 3.93838C5.04739 3.97881 5.04522 4.02272 5.05587 4.0644C5.06652 4.10608 5.0895 4.14357 5.12179 4.17199L6.23252 5.15089L5.91044 6.58416C5.89894 6.62524 5.9 6.66882 5.91348 6.70929C5.92695 6.74976 5.95223 6.78527 5.98605 6.81126C6.01988 6.83725 6.06071 6.85252 6.10328 6.85511C6.14586 6.85771 6.18824 6.8475 6.22497 6.82581L7.49938 6.07156L8.77271 6.82709L8.84304 6.86821V6.85265C8.87768 6.85922 8.91341 6.85706 8.947 6.84635C8.9806 6.83564 9.01099 6.81673 9.03544 6.79133C9.05989 6.76592 9.07762 6.73482 9.08703 6.70084C9.09644 6.66686 9.09723 6.63107 9.08933 6.59671L8.76725 5.15152L9.87834 4.1739L9.89418 4.15943ZM6.67608 5.12095C6.68291 5.09174 6.68343 5.06141 6.67759 5.03199C6.67175 5.00257 6.6597 4.97474 6.64223 4.95035L6.64678 4.9458L5.77479 4.17726L6.88125 4.07345C6.92058 4.07018 6.95823 4.056 6.98994 4.0325C7.02166 4.009 7.04618 3.97711 7.06076 3.94043L7.50021 2.9245L7.9414 3.94625C7.95706 3.98365 7.98318 4.01574 8.01661 4.03867C8.05005 4.0616 8.08939 4.0744 8.12992 4.07554L9.22482 4.17908L8.38959 4.9145C8.35901 4.94122 8.33677 4.97617 8.32553 5.01518C8.31428 5.05419 8.3145 5.09562 8.32617 5.13451L8.56582 6.20738L7.60785 5.63982C7.57465 5.62038 7.53687 5.61011 7.4984 5.61007C7.45981 5.61001 7.42195 5.62055 7.38895 5.64055L6.4327 6.20665L6.67608 5.12095ZM14.2531 1.3411C14.1558 1.24322 14.0401 1.16558 13.9126 1.11266C13.7851 1.05973 13.6485 1.03258 13.5104 1.03276H11.8416V0.21363C11.8416 0.156989 11.819 0.102683 11.779 0.0626311C11.7389 0.0225795 11.6846 5.46057e-05 11.628 0L3.37235 0C3.31579 0.000139548 3.2616 0.0227118 3.22167 0.0627631C3.18174 0.102814 3.15932 0.157072 3.15935 0.21363V1.03276H1.48981C1.21947 1.03178 0.959486 1.13665 0.765477 1.32491L0.759746 1.32373L0.745916 1.34365C0.648522 1.44066 0.5713 1.55599 0.518706 1.683C0.466111 1.81 0.439185 1.94616 0.439481 2.08363V5.43803C0.438282 5.60308 0.476327 5.76605 0.550481 5.91351C0.625236 6.06101 0.734513 6.18826 0.869015 6.28445L3.25289 8.03116L5.58945 9.78043C5.66763 9.83829 5.73147 9.91334 5.77606 9.99979C5.81873 10.087 5.84024 10.183 5.83884 10.2801V12.4612H4.20949C3.93103 12.4619 3.66419 12.5729 3.46737 12.7698C3.27056 12.9668 3.1598 13.2338 3.15936 13.5122V14.7856C3.15924 14.8423 3.1816 14.8967 3.22153 14.9369C3.26146 14.9771 3.3157 14.9998 3.37235 15H11.628C11.6847 14.9998 11.7391 14.9772 11.7791 14.937C11.8192 14.8968 11.8416 14.8424 11.8416 14.7856V13.5122C11.8412 13.2338 11.7305 12.9668 11.5336 12.7698C11.3368 12.5728 11.0699 12.4618 10.7915 12.4612H9.29687V10.1426C9.29564 10.0445 9.31758 9.94745 9.36093 9.85939C9.40634 9.77235 9.47142 9.69709 9.55099 9.63958L11.7515 8.02871C11.7557 8.026 11.7597 8.02296 11.7635 8.01961L14.131 6.28463C14.2656 6.1885 14.375 6.06123 14.4498 5.91369C14.5239 5.76616 14.5619 5.60313 14.5608 5.43803V2.08363C14.5611 1.94567 14.5341 1.80901 14.4813 1.68156C14.4285 1.5541 14.351 1.43839 14.2531 1.3411H14.2531ZM14.1335 2.08363V5.43803C14.1355 5.53621 14.1133 5.63337 14.0689 5.72097C14.0245 5.80857 13.9593 5.88394 13.879 5.94044L11.8416 7.43304V1.46057H13.5104C13.6755 1.46112 13.8337 1.52695 13.9504 1.64367C14.0671 1.7604 14.1329 1.91855 14.1335 2.08363V2.08363ZM8.97998 9.66633C8.90575 9.81406 8.8677 9.97731 8.86898 10.1426V12.4612H6.2661V10.2801C6.26775 10.1167 6.23047 9.95525 6.15734 9.80911C6.08422 9.66297 5.97735 9.53633 5.84557 9.43969L3.58662 7.7483V0.427989H11.4138V7.74611L9.29843 9.29557C9.16473 9.39254 9.05566 9.51953 8.97998 9.66633ZM11.4138 14.572H3.58662V13.5122C3.5868 13.3471 3.65248 13.1887 3.76925 13.0719C3.88601 12.9551 4.04434 12.8894 4.20949 12.8892H10.7915C10.9564 12.8899 11.1144 12.9558 11.231 13.0725C11.3475 13.1892 11.4132 13.3473 11.4138 13.5122L11.4138 14.572ZM3.15936 1.46057V7.43304L1.12141 5.94035C1.04152 5.88364 0.97643 5.80856 0.931619 5.72144C0.887913 5.63342 0.865681 5.5363 0.866744 5.43803V2.08363C0.866972 1.91845 0.932689 1.7601 1.04949 1.64331C1.16628 1.52651 1.32463 1.46079 1.48981 1.46056L3.15936 1.46057Z" fill="#A83D72"/>
</g>
<defs>
<clipPath id="clip0_305_31">
<rect width="15" height="15" fill="white"/>
</clipPath>
</defs>
</svg>
