<svg width="15" height="16" viewBox="0 0 15 16" fill="none" xmlns="http://www.w3.org/2000/svg">
<path d="M7.25784 0.972656C8.1209 0.972656 8.99734 1.06475 9.84269 1.21844C10.1385 1.27233 10.4095 1.32996 10.6502 1.3877C10.7347 1.40796 10.8095 1.42688 10.8739 1.44397C10.9129 1.45416 10.9402 1.46167 10.955 1.46594L10.9474 1.46393C11.5128 1.60523 12.0355 1.97405 12.4151 2.52032C12.8331 3.12182 13.0624 3.90991 13.0624 4.83984C13.0624 5.76953 12.8331 6.55767 12.4151 7.15918C12.0355 7.70538 11.5128 8.07421 10.9474 8.21552L10.955 8.2135C10.9402 8.21783 10.9129 8.22528 10.8739 8.23566C10.8095 8.25257 10.7347 8.27155 10.6502 8.29181L10.5574 8.31335C10.968 8.34552 11.3746 8.41449 11.7802 8.48407C12.076 8.53796 12.3471 8.59558 12.5877 8.65332C12.6721 8.67358 12.747 8.6925 12.8113 8.70959C12.8505 8.71984 12.8778 8.7273 12.8925 8.73157L12.885 8.72955C13.4503 8.87085 13.9731 9.23968 14.3526 9.78595C14.7707 10.3874 15 11.1756 15 12.1055C15 13.0352 14.7707 13.8234 14.3526 14.4249C13.9731 14.9711 13.4503 15.3399 12.885 15.4812L12.8925 15.4792C12.8778 15.4835 12.8505 15.491 12.8113 15.5013C12.747 15.5183 12.6721 15.5372 12.5877 15.5575C12.3471 15.6152 12.076 15.6729 11.7802 15.7267C10.9348 15.8804 10.0584 15.9727 9.19523 15.9727C8.56844 15.9759 7.94297 15.9199 7.32467 15.8183C6.66199 15.9261 5.99089 15.9638 5.32027 15.9727C4.45495 15.9727 3.66593 15.8798 2.96875 15.7249C2.72355 15.6704 2.50688 15.6118 2.3207 15.5531C2.25496 15.5324 2.19742 15.5128 2.14859 15.4952C2.1173 15.4839 2.13442 15.4902 2.0973 15.4763C1.49399 15.3234 1.00706 14.9203 0.64742 14.4249C0.22934 13.8234 0 13.0352 0 12.1055C0 11.1756 0.22934 10.3875 0.64742 9.78601C0.99792 9.27911 1.50176 8.89917 2.0973 8.73456C2.13442 8.72064 2.1173 8.72693 2.14859 8.71564C2.19742 8.69806 2.25496 8.67865 2.3207 8.65778C2.50688 8.599 2.72355 8.5404 2.96875 8.48596C3.39324 8.39502 3.82324 8.32196 4.25645 8.2868C4.19922 8.26898 4.14247 8.24963 4.08602 8.22961C4.05487 8.21832 4.07195 8.22454 4.03488 8.21069C3.4314 8.0578 2.94465 7.65466 2.58485 7.15924C2.16691 6.55774 1.93758 5.76959 1.93758 4.8399C1.93758 3.90997 2.16691 3.12189 2.58485 2.52039C2.93547 2.01349 3.43918 1.63354 4.03488 1.46887C4.07195 1.45502 4.05487 1.4613 4.08602 1.45001C4.13496 1.43243 4.1925 1.41302 4.25828 1.39215C4.44441 1.33337 4.66093 1.27478 4.90617 1.22034C5.60346 1.06543 6.39238 0.972656 7.25784 0.972656ZM10.8906 13.5969C10.7967 13.8932 10.6486 14.1666 10.4776 14.4248C10.098 14.971 9.57534 15.3398 9.00999 15.4811L9.01748 15.4791C8.99308 15.4862 8.9685 15.4926 8.94394 15.4991L9.19522 15.5039C10.0276 15.5039 10.8767 15.4145 11.6963 15.2654C11.9688 15.214 11.837 15.2404 12.092 15.1868C11.7744 14.9967 11.5192 14.7217 11.3037 14.4248C11.1209 14.1722 10.9976 13.8872 10.8906 13.5969ZM0.66085 13.3987C0.74464 13.6702 0.87615 13.9212 1.03225 14.1573C1.34811 14.6117 1.77518 14.9131 2.2287 15.0264C2.23889 15.029 2.24913 15.0322 2.25889 15.0362C2.25995 15.0366 2.26347 15.038 2.26912 15.0402C2.27948 15.0441 2.29217 15.0487 2.30682 15.054C2.35015 15.0696 2.40185 15.087 2.46198 15.1059C2.63533 15.1607 2.83874 15.2158 3.07038 15.2672C3.73534 15.4149 4.49033 15.5039 5.32026 15.5039C6.15265 15.5039 7.00179 15.4145 7.82136 15.2654C8.09385 15.214 7.96202 15.2404 8.21698 15.1868C7.89948 14.9967 7.64417 14.7217 7.42858 14.4248C7.24729 14.174 7.12401 13.8912 7.0178 13.6027C6.86612 13.6307 6.71307 13.6498 6.56034 13.6699C5.94526 13.7468 5.20888 13.7929 4.35147 13.7929C4.15909 13.7929 3.9601 13.7881 3.75502 13.7791C3.04821 13.7477 2.29412 13.6653 1.53073 13.548C1.23991 13.5035 0.95 13.4534 0.66085 13.3987ZM12.828 9.20001C12.3534 9.32928 11.9719 9.66296 11.6886 10.0536C11.3272 10.5736 11.125 11.268 11.125 12.1055C11.125 12.9427 11.3272 13.6373 11.6886 14.1573C11.9666 14.5507 12.357 14.8803 12.828 15.0107C13.3029 14.8816 13.6844 14.5477 13.9677 14.1573C14.3291 13.6373 14.5312 12.9427 14.5312 12.1055C14.5312 11.268 14.3291 10.5736 13.9677 10.0536C13.6897 9.66003 13.2993 9.33051 12.828 9.20001ZM8.95308 9.20001C8.4784 9.32928 8.0969 9.66296 7.81354 10.0536C7.45206 10.5736 7.25007 11.268 7.25007 12.1055C7.25007 12.9427 7.45206 13.6373 7.81354 14.1573C8.09159 14.5507 8.48207 14.8803 8.95308 15.0107C9.42792 14.8816 9.80941 14.5477 10.0926 14.1573C10.4541 13.6373 10.6563 12.9427 10.6563 12.1055C10.6563 11.268 10.4541 10.5736 10.0926 10.0536C9.81476 9.66003 9.42414 9.33051 8.95308 9.20001ZM4.35148 10.8866C4.16625 10.8866 3.97414 10.8911 3.77594 10.9C3.08778 10.9305 2.34984 11.011 1.60203 11.1262C1.26082 11.1786 0.94023 11.2348 0.64973 11.2911C0.56274 11.308 0.60043 11.3005 0.53664 11.3134C0.48429 11.574 0.47273 11.8404 0.46875 12.1055C0.47148 12.3702 0.48446 12.6372 0.53664 12.8973C0.60043 12.9102 0.56273 12.9027 0.64973 12.9197C0.94023 12.9759 1.26083 13.0321 1.60203 13.0846C2.34984 13.1996 3.08778 13.2802 3.77594 13.3107C3.97414 13.3196 4.16625 13.3242 4.35148 13.3242C5.18953 13.3242 5.90636 13.2793 6.50223 13.2048C6.73172 13.1746 6.60219 13.1928 6.89086 13.1486C6.80848 12.8069 6.78664 12.4556 6.78133 12.1055C6.78008 11.8278 6.8036 11.5507 6.84723 11.2766C6.8582 11.2072 6.87532 11.1388 6.88918 11.07C6.73109 11.0444 6.57195 11.0256 6.41297 11.0061C5.77851 10.9315 5.08363 10.8867 4.35164 10.8867H4.35148V10.8866ZM5.32027 8.70703C4.49034 8.70703 3.73535 8.79578 3.07039 8.94354C2.83875 8.99511 2.63534 9.05 2.46199 9.1048C2.40186 9.12372 2.35015 9.14112 2.30683 9.15668C2.29218 9.16199 2.27949 9.16663 2.26913 9.17053C2.26347 9.17273 2.25996 9.17407 2.2589 9.17456C2.24913 9.17847 2.2389 9.1817 2.22871 9.18433C1.77519 9.29767 1.34812 9.59906 1.03226 10.0536C0.86441 10.2837 0.75774 10.5465 0.66086 10.812C0.94973 10.7556 1.24024 10.709 1.53074 10.6627C2.29414 10.5454 3.04823 10.4631 3.75503 10.4317C3.96011 10.4225 4.15909 10.4178 4.35164 10.4178C5.103 10.4178 5.81588 10.4639 6.46772 10.5406C6.6507 10.5618 6.8332 10.5867 7.01522 10.6151C7.10921 10.3184 7.25738 10.0445 7.42858 9.78595C7.64222 9.49023 7.89932 9.21057 8.21698 9.02393C7.96202 8.97034 8.09385 8.99676 7.82136 8.94537C7.0018 8.79627 6.15265 8.70703 5.32027 8.70703ZM9.19523 8.70703L8.93785 8.7099C8.96436 8.71692 8.99093 8.72412 9.01748 8.73157L9.00999 8.72955C9.57534 8.87085 10.098 9.23968 10.4776 9.78595C10.6604 10.0385 10.7837 10.3236 10.8906 10.6139C10.9846 10.3176 11.1327 10.0441 11.3037 9.78595C11.5172 9.49023 11.7743 9.21057 12.092 9.02393C11.837 8.97034 11.9688 8.99676 11.6963 8.94537C10.8768 8.79625 10.0276 8.70703 9.19523 8.70703ZM2.59843 6.13312C2.68218 6.4046 2.81355 6.65558 2.9698 6.89166C3.28566 7.34607 3.71261 7.64746 4.16624 7.7608C4.17647 7.76342 4.18655 7.7666 4.19647 7.77057C4.19753 7.771 4.20089 7.7724 4.20666 7.77454C4.21688 7.77851 4.22956 7.78308 4.24435 7.78839C4.28772 7.80401 4.33944 7.82135 4.3994 7.84027C4.57276 7.89508 4.77627 7.95019 5.0079 8.00159C5.67292 8.1493 6.4279 8.23828 7.25783 8.23828C8.09003 8.23828 8.9392 8.14887 9.75889 7.99976C10.0313 7.94837 9.89944 7.97473 10.1544 7.9212C9.83686 7.73108 9.58159 7.45611 9.36612 7.15918C9.18487 6.90833 9.06159 6.62555 8.95522 6.33704C8.8037 6.36512 8.65065 6.38416 8.49776 6.4043C7.88268 6.4812 7.14643 6.52728 6.28905 6.52728C6.09647 6.52728 5.89753 6.52258 5.69256 6.51343C4.98565 6.48212 4.23153 6.39972 3.46831 6.28241C3.17749 6.23784 2.88757 6.18762 2.59843 6.13312ZM10.8906 1.93439C10.4158 2.06366 10.0343 2.39733 9.75112 2.78796C9.38964 3.30798 9.18745 4.00238 9.18745 4.83984C9.18745 5.67706 9.38964 6.37164 9.75112 6.89166C10.029 7.28503 10.4196 7.61463 10.8906 7.74512C11.3653 7.61597 11.7468 7.2821 12.0302 6.89166C12.3915 6.37164 12.5937 5.67706 12.5937 4.83984C12.5937 4.00238 12.3915 3.30798 12.0302 2.78796C11.7521 2.3944 11.3617 2.06488 10.8906 1.93439ZM6.28906 3.62097C6.10367 3.62097 5.91172 3.62555 5.71335 3.6344C5.0252 3.66492 4.28742 3.74541 3.53957 3.86053C3.19824 3.91296 2.87765 3.96917 2.58726 4.02545C2.50015 4.04242 2.53784 4.03491 2.47421 4.04773C2.42187 4.30835 2.41027 4.57477 2.40633 4.83984C2.40907 5.10455 2.42203 5.37158 2.47421 5.63171C2.53784 5.64459 2.50015 5.63708 2.58726 5.65405C2.87765 5.71032 3.19824 5.76648 3.53957 5.81897C4.28741 5.93402 5.02519 6.01459 5.71335 6.0451C5.91156 6.05396 6.10367 6.05853 6.28906 6.05853C7.1269 6.05853 7.84378 6.01367 8.43964 5.93921C8.66929 5.909 8.53956 5.92718 8.82827 5.88293C8.74601 5.54126 8.72421 5.18988 8.7187 4.83984C8.71764 4.56213 8.74101 4.28504 8.7848 4.01093C8.79578 3.94153 8.81269 3.87316 8.82675 3.80432C8.66866 3.77875 8.50952 3.76001 8.35049 3.74048C7.7159 3.6658 7.02115 3.62097 6.28906 3.62097ZM7.25784 1.44141C6.42791 1.44141 5.67293 1.53016 5.00791 1.67792C4.77628 1.72949 4.57277 1.78437 4.39941 1.83917C4.33945 1.85809 4.28773 1.87549 4.24436 1.89105C4.22957 1.89636 4.21689 1.90101 4.20667 1.90491C4.20089 1.90711 4.19753 1.90845 4.19648 1.90894C4.18656 1.91285 4.17648 1.91607 4.16625 1.9187C3.71262 2.03204 3.28567 2.33343 2.96981 2.78796C2.80195 3.01818 2.69531 3.28083 2.59844 3.54633C2.88727 3.48999 3.17765 3.44335 3.46832 3.39709C4.23155 3.27972 4.98566 3.19752 5.69257 3.16608C5.89124 3.15644 6.09022 3.15337 6.28906 3.15222L6.56891 3.15436C7.18293 3.16059 7.79543 3.20757 8.40531 3.27502C8.58823 3.2962 8.77073 3.3211 8.95261 3.34967C9.04678 3.05273 9.19496 2.77893 9.36612 2.52032C9.57975 2.2246 9.83685 1.94494 10.1544 1.7583C9.89944 1.70471 10.0313 1.73114 9.75889 1.67975C8.9392 1.53063 8.09003 1.44141 7.25784 1.44141Z" fill="#A83D72"/>
</svg>
