<svg width="16" height="14" viewBox="0 0 16 14" fill="none" xmlns="http://www.w3.org/2000/svg">
<path d="M8.90945 2.83783L8.91395 2.83808C10.5316 2.88697 11.9926 3.87508 12.6127 5.37458C12.7316 5.66196 12.7522 5.77147 12.8341 6.07253C13.5249 6.17542 14.1895 6.39576 14.8204 6.6914C15.1334 6.84346 15.4044 7.00559 15.6329 7.16778C15.7139 7.225 15.784 7.2787 15.8431 7.32713C15.8799 7.35723 15.9058 7.37984 15.9204 7.3934C16.0211 7.4866 16.0271 7.64366 15.9339 7.74426C15.8407 7.84488 15.6836 7.8509 15.583 7.7577C15.582 7.75669 15.5784 7.7534 15.572 7.74781C15.56 7.73754 15.5457 7.72531 15.5285 7.71126C15.4781 7.66993 15.4171 7.62338 15.3456 7.57278C15.1389 7.42601 14.8912 7.27777 14.6034 7.13813C13.7531 6.7094 12.8269 6.54314 11.886 6.47518L15.8551 13.6127C15.9218 13.7326 15.8786 13.8837 15.7589 13.9504C15.639 14.0171 15.4879 13.9738 15.4212 13.854L11.3153 6.47035C10.6697 6.50986 10.9503 6.48201 10.4714 6.53934C10.3596 6.55507 10.2485 6.57596 10.1369 6.59426L12.0304 13.5977C12.0661 13.7299 11.9879 13.8662 11.8555 13.9021C11.7231 13.9378 11.5868 13.8596 11.5511 13.7272L9.89929 7.61804L9.87207 7.59524C9.81141 7.545 9.73826 7.48835 9.65243 7.42694C9.40495 7.24959 9.10871 7.07048 8.76472 6.90166C8.49258 6.77298 8.64091 6.83992 8.31847 6.70336L8.19148 13.5961C8.18895 13.7332 8.07574 13.8423 7.93868 13.8398C7.80162 13.8372 7.6925 13.724 7.69503 13.587L7.82527 6.51806C7.43452 6.37864 7.02854 6.2929 6.62139 6.21927L4.33287 13.5944C4.29229 13.7254 4.15306 13.7985 4.0222 13.7579C3.89122 13.7174 3.81796 13.5781 3.85866 13.4473L6.1235 6.14868C5.83729 6.10769 5.54758 6.09958 5.25904 6.09053C5.00347 6.08911 5.0918 6.08635 4.99407 6.08972L0.460572 13.5784C0.389712 13.6957 0.237052 13.7333 0.119712 13.6623C0.0023719 13.5912 -0.0350882 13.4386 0.0359818 13.3212L4.39739 6.11638C3.47374 6.17341 2.57431 6.40791 1.72584 6.77199C1.37591 6.92802 1.07323 7.09609 0.819262 7.26421C0.731362 7.32242 0.656002 7.37633 0.593532 7.42431C0.572212 7.44071 0.554022 7.4551 0.539232 7.46712C0.531032 7.47393 0.526282 7.47802 0.524652 7.47927C0.421312 7.56936 0.264372 7.55841 0.174442 7.45491C0.0845218 7.35139 0.0953518 7.19463 0.198822 7.1047C0.216102 7.08966 0.247112 7.06436 0.291402 7.03025C0.362892 6.97549 0.447402 6.91498 0.545102 6.85031C0.821362 6.66727 1.14788 6.48604 1.52376 6.31853C2.4577 5.90253 3.46633 5.6731 4.4856 5.61043C4.64649 5.60044 4.80804 5.59935 4.96929 5.59376C5.60973 3.87745 7.08783 2.88426 8.9049 2.8379L8.90945 2.83783ZM9.65261 6.70534L9.50984 6.7428C9.6435 6.82237 9.58263 6.78404 9.69348 6.85643L9.65261 6.70534ZM8.90352 3.33451C7.41434 3.34084 6.07795 4.22491 5.50602 5.6016C6.67759 5.64388 7.84188 5.91542 8.90185 6.41732C9.78367 6.07629 10.7332 5.97413 11.6722 5.96885L11.676 5.96876C12.0335 5.98001 11.8254 5.97051 12.3 6.00417C11.8632 4.40476 10.5224 3.44905 8.90352 3.33451Z" fill="#A83D72"/>
<path d="M14.6039 3.33658L14.6356 3.34238C14.7081 3.35889 14.7594 3.40105 14.8017 3.46022C14.8702 3.57884 14.8295 3.73079 14.7109 3.79931L14.0443 4.18417C13.9257 4.25286 13.7737 4.21215 13.7052 4.09334C13.6367 3.97472 13.6772 3.82277 13.796 3.75421L14.4626 3.3694C14.5062 3.34221 14.5544 3.34238 14.6039 3.33658Z" fill="#A83D72"/>
<path d="M3.01629 3.33658C3.12846 3.35077 3.08258 3.33542 3.15755 3.36939L3.82411 3.7542C3.94294 3.82277 3.98349 3.97471 3.91497 4.09333C3.84645 4.21213 3.69452 4.25285 3.57585 4.18416L2.90929 3.7993C2.79049 3.73061 2.74995 3.57883 2.81847 3.46004C2.87341 3.37084 2.91868 3.36277 3.01629 3.33658Z" fill="#A83D72"/>
<path d="M5.49215 0.89447C5.57974 0.90643 5.64281 0.945242 5.68982 1.01798L6.07468 1.68472C6.1432 1.80351 6.10248 1.95527 5.98385 2.0238C5.86505 2.09249 5.71312 2.05177 5.64459 1.93298L5.25989 1.26625C5.19133 1.14741 5.23192 0.995644 5.35072 0.927124C5.42586 0.893364 5.37998 0.90855 5.49215 0.89447Z" fill="#A83D72"/>
<path d="M12.1275 0.89447C12.2397 0.90855 12.1938 0.893364 12.2689 0.927124C12.3876 0.995634 12.4283 1.1474 12.3598 1.26625L11.975 1.93298C11.9064 2.05177 11.7547 2.09249 11.6358 2.0238C11.5172 1.95527 11.4765 1.80351 11.545 1.68472L11.9298 1.01798C11.9848 0.928562 12.0299 0.92067 12.1275 0.89447Z" fill="#A83D72"/>
<path d="M8.80979 0C8.94701 0 9.05806 0.111218 9.05806 0.248268V1.01811C9.05806 1.15519 8.94701 1.26638 8.80979 1.26638C8.67271 1.26638 8.56152 1.15519 8.56152 1.01811V0.248268C8.56152 0.111218 8.6727 0 8.80979 0Z" fill="#A83D72"/>
</svg>
